<svg xmlns="http://www.w3.org/2000/svg" viewBox="0 0 24 24" shape-rendering="crispEdges">
  <rect x="0" y="0" width="1" height="1" fill="#ffffff"/>
  <rect x="1" y="0" width="1" height="1" fill="#ffffff"/>
  <rect x="2" y="0" width="1" height="1" fill="#ffffff"/>
  <rect x="3" y="0" width="1" height="1" fill="#feffff"/>
  <rect x="4" y="0" width="1" height="1" fill="#ffffff"/>
  <rect x="5" y="0" width="1" height="1" fill="#fbfdfe"/>
  <rect x="6" y="0" width="1" height="1" fill="#b3d1f3"/>
  <rect x="7" y="0" width="1" height="1" fill="#9ac2ef"/>
  <rect x="8" y="0" width="1" height="1" fill="#dae9f9"/>
  <rect x="9" y="0" width="1" height="1" fill="#ffffff"/>
  <rect x="10" y="0" width="1" height="1" fill="#fefeff"/>
  <rect x="11" y="0" width="1" height="1" fill="#ffffff"/>
  <rect x="12" y="0" width="1" height="1" fill="#ffffff"/>
  <rect x="13" y="0" width="1" height="1" fill="#fefeff"/>
  <rect x="14" y="0" width="1" height="1" fill="#ffffff"/>
  <rect x="15" y="0" width="1" height="1" fill="#aecef3"/>
  <rect x="16" y="0" width="1" height="1" fill="#4e93e4"/>
  <rect x="17" y="0" width="1" height="1" fill="#4991e3"/>
  <rect x="18" y="0" width="1" height="1" fill="#99c1ef"/>
  <rect x="19" y="0" width="1" height="1" fill="#fefeff"/>
  <rect x="20" y="0" width="1" height="1" fill="#fefeff"/>
  <rect x="21" y="0" width="1" height="1" fill="#ffffff"/>
  <rect x="22" y="0" width="1" height="1" fill="#ffffff"/>
  <rect x="23" y="0" width="1" height="1" fill="#ffffff"/>
  <rect x="0" y="1" width="1" height="1" fill="#ffffff"/>
  <rect x="1" y="1" width="1" height="1" fill="#ffffff"/>
  <rect x="2" y="1" width="1" height="1" fill="#ffffff"/>
  <rect x="3" y="1" width="1" height="1" fill="#fefeff"/>
  <rect x="4" y="1" width="1" height="1" fill="#fdfeff"/>
  <rect x="5" y="1" width="1" height="1" fill="#82b3ec"/>
  <rect x="6" y="1" width="1" height="1" fill="#3987e1"/>
  <rect x="7" y="1" width="1" height="1" fill="#3f8ae2"/>
  <rect x="8" y="1" width="1" height="1" fill="#478fe3"/>
  <rect x="9" y="1" width="1" height="1" fill="#cfe2f8"/>
  <rect x="10" y="1" width="1" height="1" fill="#ffffff"/>
  <rect x="11" y="1" width="1" height="1" fill="#fdfeff"/>
  <rect x="12" y="1" width="1" height="1" fill="#fdfeff"/>
  <rect x="13" y="1" width="1" height="1" fill="#ffffff"/>
  <rect x="14" y="1" width="1" height="1" fill="#d6e6f9"/>
  <rect x="15" y="1" width="1" height="1" fill="#418be2"/>
  <rect x="16" y="1" width="1" height="1" fill="#468fe2"/>
  <rect x="17" y="1" width="1" height="1" fill="#4991e3"/>
  <rect x="18" y="1" width="1" height="1" fill="#3987e1"/>
  <rect x="19" y="1" width="1" height="1" fill="#bfd8f5"/>
  <rect x="20" y="1" width="1" height="1" fill="#ffffff"/>
  <rect x="21" y="1" width="1" height="1" fill="#fcfdff"/>
  <rect x="22" y="1" width="1" height="1" fill="#ffffff"/>
  <rect x="23" y="1" width="1" height="1" fill="#ffffff"/>
  <rect x="0" y="2" width="1" height="1" fill="#ffffff"/>
  <rect x="1" y="2" width="1" height="1" fill="#ffffff"/>
  <rect x="2" y="2" width="1" height="1" fill="#fdfeff"/>
  <rect x="3" y="2" width="1" height="1" fill="#ffffff"/>
  <rect x="4" y="2" width="1" height="1" fill="#d6e6f9"/>
  <rect x="5" y="2" width="1" height="1" fill="#3e8ae2"/>
  <rect x="6" y="2" width="1" height="1" fill="#4b92e3"/>
  <rect x="7" y="2" width="1" height="1" fill="#4d93e4"/>
  <rect x="8" y="2" width="1" height="1" fill="#3b88e1"/>
  <rect x="9" y="2" width="1" height="1" fill="#77acea"/>
  <rect x="10" y="2" width="1" height="1" fill="#ffffff"/>
  <rect x="11" y="2" width="1" height="1" fill="#fdfeff"/>
  <rect x="12" y="2" width="1" height="1" fill="#fcfdff"/>
  <rect x="13" y="2" width="1" height="1" fill="#ffffff"/>
  <rect x="14" y="2" width="1" height="1" fill="#accdf2"/>
  <rect x="15" y="2" width="1" height="1" fill="#3b88e1"/>
  <rect x="16" y="2" width="1" height="1" fill="#4d93e3"/>
  <rect x="17" y="2" width="1" height="1" fill="#4c93e3"/>
  <rect x="18" y="2" width="1" height="1" fill="#3d89e1"/>
  <rect x="19" y="2" width="1" height="1" fill="#8ebbee"/>
  <rect x="20" y="2" width="1" height="1" fill="#ffffff"/>
  <rect x="21" y="2" width="1" height="1" fill="#fcfdff"/>
  <rect x="22" y="2" width="1" height="1" fill="#ffffff"/>
  <rect x="23" y="2" width="1" height="1" fill="#ffffff"/>
  <rect x="0" y="3" width="1" height="1" fill="#ffffff"/>
  <rect x="1" y="3" width="1" height="1" fill="#ffffff"/>
  <rect x="2" y="3" width="1" height="1" fill="#fdfeff"/>
  <rect x="3" y="3" width="1" height="1" fill="#ffffff"/>
  <rect x="4" y="3" width="1" height="1" fill="#d6e6f9"/>
  <rect x="5" y="3" width="1" height="1" fill="#3f8ae2"/>
  <rect x="6" y="3" width="1" height="1" fill="#4c92e3"/>
  <rect x="7" y="3" width="1" height="1" fill="#4d93e4"/>
  <rect x="8" y="3" width="1" height="1" fill="#408be2"/>
  <rect x="9" y="3" width="1" height="1" fill="#83b4ec"/>
  <rect x="10" y="3" width="1" height="1" fill="#fefeff"/>
  <rect x="11" y="3" width="1" height="1" fill="#fdfeff"/>
  <rect x="12" y="3" width="1" height="1" fill="#fcfdff"/>
  <rect x="13" y="3" width="1" height="1" fill="#ffffff"/>
  <rect x="14" y="3" width="1" height="1" fill="#cfe2f8"/>
  <rect x="15" y="3" width="1" height="1" fill="#3e8ae1"/>
  <rect x="16" y="3" width="1" height="1" fill="#468fe2"/>
  <rect x="17" y="3" width="1" height="1" fill="#478fe2"/>
  <rect x="18" y="3" width="1" height="1" fill="#3584e0"/>
  <rect x="19" y="3" width="1" height="1" fill="#bad5f4"/>
  <rect x="20" y="3" width="1" height="1" fill="#ffffff"/>
  <rect x="21" y="3" width="1" height="1" fill="#fcfdff"/>
  <rect x="22" y="3" width="1" height="1" fill="#ffffff"/>
  <rect x="23" y="3" width="1" height="1" fill="#ffffff"/>
  <rect x="0" y="4" width="1" height="1" fill="#ffffff"/>
  <rect x="1" y="4" width="1" height="1" fill="#ffffff"/>
  <rect x="2" y="4" width="1" height="1" fill="#ffffff"/>
  <rect x="3" y="4" width="1" height="1" fill="#fefeff"/>
  <rect x="4" y="4" width="1" height="1" fill="#fcfdff"/>
  <rect x="5" y="4" width="1" height="1" fill="#7eb1eb"/>
  <rect x="6" y="4" width="1" height="1" fill="#3584e0"/>
  <rect x="7" y="4" width="1" height="1" fill="#3f8ae2"/>
  <rect x="8" y="4" width="1" height="1" fill="#3584e0"/>
  <rect x="9" y="4" width="1" height="1" fill="#8fbbee"/>
  <rect x="10" y="4" width="1" height="1" fill="#ffffff"/>
  <rect x="11" y="4" width="1" height="1" fill="#fbfcff"/>
  <rect x="12" y="4" width="1" height="1" fill="#fdfeff"/>
  <rect x="13" y="4" width="1" height="1" fill="#fdfeff"/>
  <rect x="14" y="4" width="1" height="1" fill="#78adea"/>
  <rect x="15" y="4" width="1" height="1" fill="#438de2"/>
  <rect x="16" y="4" width="1" height="1" fill="#5c9ce6"/>
  <rect x="17" y="4" width="1" height="1" fill="#4f94e4"/>
  <rect x="18" y="4" width="1" height="1" fill="#99c1ef"/>
  <rect x="19" y="4" width="1" height="1" fill="#fdfeff"/>
  <rect x="20" y="4" width="1" height="1" fill="#fefeff"/>
  <rect x="21" y="4" width="1" height="1" fill="#ffffff"/>
  <rect x="22" y="4" width="1" height="1" fill="#ffffff"/>
  <rect x="23" y="4" width="1" height="1" fill="#ffffff"/>
  <rect x="0" y="5" width="1" height="1" fill="#ffffff"/>
  <rect x="1" y="5" width="1" height="1" fill="#ffffff"/>
  <rect x="2" y="5" width="1" height="1" fill="#ffffff"/>
  <rect x="3" y="5" width="1" height="1" fill="#fdfeff"/>
  <rect x="4" y="5" width="1" height="1" fill="#fcfdff"/>
  <rect x="5" y="5" width="1" height="1" fill="#f8fbfe"/>
  <rect x="6" y="5" width="1" height="1" fill="#b0cff3"/>
  <rect x="7" y="5" width="1" height="1" fill="#a2c6f1"/>
  <rect x="8" y="5" width="1" height="1" fill="#85b5ec"/>
  <rect x="9" y="5" width="1" height="1" fill="#3081df"/>
  <rect x="10" y="5" width="1" height="1" fill="#b5d2f4"/>
  <rect x="11" y="5" width="1" height="1" fill="#ffffff"/>
  <rect x="12" y="5" width="1" height="1" fill="#ffffff"/>
  <rect x="13" y="5" width="1" height="1" fill="#91bcee"/>
  <rect x="14" y="5" width="1" height="1" fill="#2a7ede"/>
  <rect x="15" y="5" width="1" height="1" fill="#b5d2f4"/>
  <rect x="16" y="5" width="1" height="1" fill="#f3f8fd"/>
  <rect x="17" y="5" width="1" height="1" fill="#eef5fd"/>
  <rect x="18" y="5" width="1" height="1" fill="#ffffff"/>
  <rect x="19" y="5" width="1" height="1" fill="#fdfeff"/>
  <rect x="20" y="5" width="1" height="1" fill="#fefeff"/>
  <rect x="21" y="5" width="1" height="1" fill="#ffffff"/>
  <rect x="22" y="5" width="1" height="1" fill="#ffffff"/>
  <rect x="23" y="5" width="1" height="1" fill="#ffffff"/>
  <rect x="0" y="6" width="1" height="1" fill="#ffffff"/>
  <rect x="1" y="6" width="1" height="1" fill="#ffffff"/>
  <rect x="2" y="6" width="1" height="1" fill="#ffffff"/>
  <rect x="3" y="6" width="1" height="1" fill="#ffffff"/>
  <rect x="4" y="6" width="1" height="1" fill="#ffffff"/>
  <rect x="5" y="6" width="1" height="1" fill="#ffffff"/>
  <rect x="6" y="6" width="1" height="1" fill="#ffffff"/>
  <rect x="7" y="6" width="1" height="1" fill="#ffffff"/>
  <rect x="8" y="6" width="1" height="1" fill="#ffffff"/>
  <rect x="9" y="6" width="1" height="1" fill="#82b3ec"/>
  <rect x="10" y="6" width="1" height="1" fill="#3886e1"/>
  <rect x="11" y="6" width="1" height="1" fill="#d2e3f8"/>
  <rect x="12" y="6" width="1" height="1" fill="#b5d2f4"/>
  <rect x="13" y="6" width="1" height="1" fill="#3182e0"/>
  <rect x="14" y="6" width="1" height="1" fill="#a7caf2"/>
  <rect x="15" y="6" width="1" height="1" fill="#ffffff"/>
  <rect x="16" y="6" width="1" height="1" fill="#ffffff"/>
  <rect x="17" y="6" width="1" height="1" fill="#ffffff"/>
  <rect x="18" y="6" width="1" height="1" fill="#ffffff"/>
  <rect x="19" y="6" width="1" height="1" fill="#ffffff"/>
  <rect x="20" y="6" width="1" height="1" fill="#ffffff"/>
  <rect x="21" y="6" width="1" height="1" fill="#ffffff"/>
  <rect x="22" y="6" width="1" height="1" fill="#ffffff"/>
  <rect x="23" y="6" width="1" height="1" fill="#ffffff"/>
  <rect x="0" y="7" width="1" height="1" fill="#ffffff"/>
  <rect x="1" y="7" width="1" height="1" fill="#fefeff"/>
  <rect x="2" y="7" width="1" height="1" fill="#ffffff"/>
  <rect x="3" y="7" width="1" height="1" fill="#eaf2fc"/>
  <rect x="4" y="7" width="1" height="1" fill="#c1daf6"/>
  <rect x="5" y="7" width="1" height="1" fill="#c4dbf6"/>
  <rect x="6" y="7" width="1" height="1" fill="#c2daf6"/>
  <rect x="7" y="7" width="1" height="1" fill="#c0d9f6"/>
  <rect x="8" y="7" width="1" height="1" fill="#c4dbf6"/>
  <rect x="9" y="7" width="1" height="1" fill="#bad5f4"/>
  <rect x="10" y="7" width="1" height="1" fill="#4b92e4"/>
  <rect x="11" y="7" width="1" height="1" fill="#4c93e4"/>
  <rect x="12" y="7" width="1" height="1" fill="#458fe3"/>
  <rect x="13" y="7" width="1" height="1" fill="#5c9ce6"/>
  <rect x="14" y="7" width="1" height="1" fill="#c5dcf6"/>
  <rect x="15" y="7" width="1" height="1" fill="#c3daf6"/>
  <rect x="16" y="7" width="1" height="1" fill="#c3dbf6"/>
  <rect x="17" y="7" width="1" height="1" fill="#c4dbf6"/>
  <rect x="18" y="7" width="1" height="1" fill="#c5dcf6"/>
  <rect x="19" y="7" width="1" height="1" fill="#c2daf6"/>
  <rect x="20" y="7" width="1" height="1" fill="#ecf3fc"/>
  <rect x="21" y="7" width="1" height="1" fill="#ffffff"/>
  <rect x="22" y="7" width="1" height="1" fill="#feffff"/>
  <rect x="23" y="7" width="1" height="1" fill="#ffffff"/>
  <rect x="0" y="8" width="1" height="1" fill="#ffffff"/>
  <rect x="1" y="8" width="1" height="1" fill="#fbfdff"/>
  <rect x="2" y="8" width="1" height="1" fill="#feffff"/>
  <rect x="3" y="8" width="1" height="1" fill="#92bdee"/>
  <rect x="4" y="8" width="1" height="1" fill="#3081df"/>
  <rect x="5" y="8" width="1" height="1" fill="#418ce1"/>
  <rect x="6" y="8" width="1" height="1" fill="#3e8ae1"/>
  <rect x="7" y="8" width="1" height="1" fill="#3e8ae1"/>
  <rect x="8" y="8" width="1" height="1" fill="#3e8ae1"/>
  <rect x="9" y="8" width="1" height="1" fill="#408be2"/>
  <rect x="10" y="8" width="1" height="1" fill="#4a91e3"/>
  <rect x="11" y="8" width="1" height="1" fill="#478fe3"/>
  <rect x="12" y="8" width="1" height="1" fill="#4890e3"/>
  <rect x="13" y="8" width="1" height="1" fill="#4991e3"/>
  <rect x="14" y="8" width="1" height="1" fill="#3e8ae2"/>
  <rect x="15" y="8" width="1" height="1" fill="#3e8ae2"/>
  <rect x="16" y="8" width="1" height="1" fill="#3e8ae1"/>
  <rect x="17" y="8" width="1" height="1" fill="#3e8ae1"/>
  <rect x="18" y="8" width="1" height="1" fill="#418ce1"/>
  <rect x="19" y="8" width="1" height="1" fill="#3082df"/>
  <rect x="20" y="8" width="1" height="1" fill="#9ac1ef"/>
  <rect x="21" y="8" width="1" height="1" fill="#feffff"/>
  <rect x="22" y="8" width="1" height="1" fill="#fbfdff"/>
  <rect x="23" y="8" width="1" height="1" fill="#ffffff"/>
  <rect x="0" y="9" width="1" height="1" fill="#ffffff"/>
  <rect x="1" y="9" width="1" height="1" fill="#fdfdff"/>
  <rect x="2" y="9" width="1" height="1" fill="#ffffff"/>
  <rect x="3" y="9" width="1" height="1" fill="#92bdee"/>
  <rect x="4" y="9" width="1" height="1" fill="#3d89e1"/>
  <rect x="5" y="9" width="1" height="1" fill="#4d93e3"/>
  <rect x="6" y="9" width="1" height="1" fill="#4a91e3"/>
  <rect x="7" y="9" width="1" height="1" fill="#4b92e4"/>
  <rect x="8" y="9" width="1" height="1" fill="#4890e3"/>
  <rect x="9" y="9" width="1" height="1" fill="#4890e3"/>
  <rect x="10" y="9" width="1" height="1" fill="#4990e3"/>
  <rect x="11" y="9" width="1" height="1" fill="#4890e3"/>
  <rect x="12" y="9" width="1" height="1" fill="#4890e3"/>
  <rect x="13" y="9" width="1" height="1" fill="#4991e3"/>
  <rect x="14" y="9" width="1" height="1" fill="#478fe3"/>
  <rect x="15" y="9" width="1" height="1" fill="#4790e3"/>
  <rect x="16" y="9" width="1" height="1" fill="#4b92e4"/>
  <rect x="17" y="9" width="1" height="1" fill="#4a91e3"/>
  <rect x="18" y="9" width="1" height="1" fill="#4d93e3"/>
  <rect x="19" y="9" width="1" height="1" fill="#3d89e1"/>
  <rect x="20" y="9" width="1" height="1" fill="#99c1ef"/>
  <rect x="21" y="9" width="1" height="1" fill="#ffffff"/>
  <rect x="22" y="9" width="1" height="1" fill="#fdfdff"/>
  <rect x="23" y="9" width="1" height="1" fill="#ffffff"/>
  <rect x="0" y="10" width="1" height="1" fill="#ffffff"/>
  <rect x="1" y="10" width="1" height="1" fill="#fafcff"/>
  <rect x="2" y="10" width="1" height="1" fill="#fafcfe"/>
  <rect x="3" y="10" width="1" height="1" fill="#90bcee"/>
  <rect x="4" y="10" width="1" height="1" fill="#3b88e1"/>
  <rect x="5" y="10" width="1" height="1" fill="#4b92e3"/>
  <rect x="6" y="10" width="1" height="1" fill="#4991e3"/>
  <rect x="7" y="10" width="1" height="1" fill="#438de2"/>
  <rect x="8" y="10" width="1" height="1" fill="#5296e5"/>
  <rect x="9" y="10" width="1" height="1" fill="#4f95e4"/>
  <rect x="10" y="10" width="1" height="1" fill="#438de2"/>
  <rect x="11" y="10" width="1" height="1" fill="#4990e3"/>
  <rect x="12" y="10" width="1" height="1" fill="#4990e3"/>
  <rect x="13" y="10" width="1" height="1" fill="#438de2"/>
  <rect x="14" y="10" width="1" height="1" fill="#5698e5"/>
  <rect x="15" y="10" width="1" height="1" fill="#5397e5"/>
  <rect x="16" y="10" width="1" height="1" fill="#438de2"/>
  <rect x="17" y="10" width="1" height="1" fill="#4991e3"/>
  <rect x="18" y="10" width="1" height="1" fill="#4b92e3"/>
  <rect x="19" y="10" width="1" height="1" fill="#3b88e1"/>
  <rect x="20" y="10" width="1" height="1" fill="#97c0ef"/>
  <rect x="21" y="10" width="1" height="1" fill="#fafcfe"/>
  <rect x="22" y="10" width="1" height="1" fill="#fafcff"/>
  <rect x="23" y="10" width="1" height="1" fill="#ffffff"/>
  <rect x="0" y="11" width="1" height="1" fill="#e2eefb"/>
  <rect x="1" y="11" width="1" height="1" fill="#63a0e7"/>
  <rect x="2" y="11" width="1" height="1" fill="#5c9ce6"/>
  <rect x="3" y="11" width="1" height="1" fill="#5195e4"/>
  <rect x="4" y="11" width="1" height="1" fill="#468fe3"/>
  <rect x="5" y="11" width="1" height="1" fill="#4a91e3"/>
  <rect x="6" y="11" width="1" height="1" fill="#418ce2"/>
  <rect x="7" y="11" width="1" height="1" fill="#6da6e9"/>
  <rect x="8" y="11" width="1" height="1" fill="#eef5fc"/>
  <rect x="9" y="11" width="1" height="1" fill="#e9f2fc"/>
  <rect x="10" y="11" width="1" height="1" fill="#629fe7"/>
  <rect x="11" y="11" width="1" height="1" fill="#448ee2"/>
  <rect x="12" y="11" width="1" height="1" fill="#428ce2"/>
  <rect x="13" y="11" width="1" height="1" fill="#6fa8e9"/>
  <rect x="14" y="11" width="1" height="1" fill="#f2f7fd"/>
  <rect x="15" y="11" width="1" height="1" fill="#eef4fc"/>
  <rect x="16" y="11" width="1" height="1" fill="#64a1e7"/>
  <rect x="17" y="11" width="1" height="1" fill="#428ce2"/>
  <rect x="18" y="11" width="1" height="1" fill="#4a91e3"/>
  <rect x="19" y="11" width="1" height="1" fill="#468fe3"/>
  <rect x="20" y="11" width="1" height="1" fill="#5296e4"/>
  <rect x="21" y="11" width="1" height="1" fill="#5c9ce6"/>
  <rect x="22" y="11" width="1" height="1" fill="#63a0e7"/>
  <rect x="23" y="11" width="1" height="1" fill="#e2eefb"/>
  <rect x="0" y="12" width="1" height="1" fill="#d4e5f9"/>
  <rect x="1" y="12" width="1" height="1" fill="#418be2"/>
  <rect x="2" y="12" width="1" height="1" fill="#438de2"/>
  <rect x="3" y="12" width="1" height="1" fill="#468fe3"/>
  <rect x="4" y="12" width="1" height="1" fill="#4890e3"/>
  <rect x="5" y="12" width="1" height="1" fill="#4b92e3"/>
  <rect x="6" y="12" width="1" height="1" fill="#3a88e1"/>
  <rect x="7" y="12" width="1" height="1" fill="#98c1f0"/>
  <rect x="8" y="12" width="1" height="1" fill="#ffffff"/>
  <rect x="9" y="12" width="1" height="1" fill="#ffffff"/>
  <rect x="10" y="12" width="1" height="1" fill="#87b6ed"/>
  <rect x="11" y="12" width="1" height="1" fill="#3f8be2"/>
  <rect x="12" y="12" width="1" height="1" fill="#3d8ae1"/>
  <rect x="13" y="12" width="1" height="1" fill="#97c0ef"/>
  <rect x="14" y="12" width="1" height="1" fill="#ffffff"/>
  <rect x="15" y="12" width="1" height="1" fill="#ffffff"/>
  <rect x="16" y="12" width="1" height="1" fill="#89b7ed"/>
  <rect x="17" y="12" width="1" height="1" fill="#3c88e1"/>
  <rect x="18" y="12" width="1" height="1" fill="#4b92e3"/>
  <rect x="19" y="12" width="1" height="1" fill="#4890e3"/>
  <rect x="20" y="12" width="1" height="1" fill="#468fe3"/>
  <rect x="21" y="12" width="1" height="1" fill="#438de2"/>
  <rect x="22" y="12" width="1" height="1" fill="#418be2"/>
  <rect x="23" y="12" width="1" height="1" fill="#d4e5f9"/>
  <rect x="0" y="13" width="1" height="1" fill="#d7e6f9"/>
  <rect x="1" y="13" width="1" height="1" fill="#4890e3"/>
  <rect x="2" y="13" width="1" height="1" fill="#4991e3"/>
  <rect x="3" y="13" width="1" height="1" fill="#4890e3"/>
  <rect x="4" y="13" width="1" height="1" fill="#4890e3"/>
  <rect x="5" y="13" width="1" height="1" fill="#4b92e3"/>
  <rect x="6" y="13" width="1" height="1" fill="#3b88e1"/>
  <rect x="7" y="13" width="1" height="1" fill="#8fbbee"/>
  <rect x="8" y="13" width="1" height="1" fill="#ffffff"/>
  <rect x="9" y="13" width="1" height="1" fill="#ffffff"/>
  <rect x="10" y="13" width="1" height="1" fill="#7eb1eb"/>
  <rect x="11" y="13" width="1" height="1" fill="#408be2"/>
  <rect x="12" y="13" width="1" height="1" fill="#3e8ae1"/>
  <rect x="13" y="13" width="1" height="1" fill="#8dbaed"/>
  <rect x="14" y="13" width="1" height="1" fill="#ffffff"/>
  <rect x="15" y="13" width="1" height="1" fill="#ffffff"/>
  <rect x="16" y="13" width="1" height="1" fill="#7eb1eb"/>
  <rect x="17" y="13" width="1" height="1" fill="#3e89e1"/>
  <rect x="18" y="13" width="1" height="1" fill="#4b92e3"/>
  <rect x="19" y="13" width="1" height="1" fill="#4890e3"/>
  <rect x="20" y="13" width="1" height="1" fill="#4990e3"/>
  <rect x="21" y="13" width="1" height="1" fill="#4991e3"/>
  <rect x="22" y="13" width="1" height="1" fill="#4890e3"/>
  <rect x="23" y="13" width="1" height="1" fill="#d7e6f9"/>
  <rect x="0" y="14" width="1" height="1" fill="#d6e6f9"/>
  <rect x="1" y="14" width="1" height="1" fill="#478fe3"/>
  <rect x="2" y="14" width="1" height="1" fill="#4890e3"/>
  <rect x="3" y="14" width="1" height="1" fill="#4890e3"/>
  <rect x="4" y="14" width="1" height="1" fill="#4890e3"/>
  <rect x="5" y="14" width="1" height="1" fill="#4990e3"/>
  <rect x="6" y="14" width="1" height="1" fill="#458ee3"/>
  <rect x="7" y="14" width="1" height="1" fill="#5397e5"/>
  <rect x="8" y="14" width="1" height="1" fill="#afcef3"/>
  <rect x="9" y="14" width="1" height="1" fill="#a9cbf2"/>
  <rect x="10" y="14" width="1" height="1" fill="#4d93e4"/>
  <rect x="11" y="14" width="1" height="1" fill="#478fe3"/>
  <rect x="12" y="14" width="1" height="1" fill="#468fe3"/>
  <rect x="13" y="14" width="1" height="1" fill="#5195e4"/>
  <rect x="14" y="14" width="1" height="1" fill="#a8caf2"/>
  <rect x="15" y="14" width="1" height="1" fill="#a3c7f1"/>
  <rect x="16" y="14" width="1" height="1" fill="#4c93e4"/>
  <rect x="17" y="14" width="1" height="1" fill="#478fe3"/>
  <rect x="18" y="14" width="1" height="1" fill="#4890e3"/>
  <rect x="19" y="14" width="1" height="1" fill="#4890e3"/>
  <rect x="20" y="14" width="1" height="1" fill="#4890e3"/>
  <rect x="21" y="14" width="1" height="1" fill="#4890e3"/>
  <rect x="22" y="14" width="1" height="1" fill="#478fe3"/>
  <rect x="23" y="14" width="1" height="1" fill="#d6e6f9"/>
  <rect x="0" y="15" width="1" height="1" fill="#d6e6f9"/>
  <rect x="1" y="15" width="1" height="1" fill="#478fe3"/>
  <rect x="2" y="15" width="1" height="1" fill="#4890e3"/>
  <rect x="3" y="15" width="1" height="1" fill="#4890e3"/>
  <rect x="4" y="15" width="1" height="1" fill="#4890e3"/>
  <rect x="5" y="15" width="1" height="1" fill="#4890e3"/>
  <rect x="6" y="15" width="1" height="1" fill="#4990e3"/>
  <rect x="7" y="15" width="1" height="1" fill="#458ee3"/>
  <rect x="8" y="15" width="1" height="1" fill="#3c89e1"/>
  <rect x="9" y="15" width="1" height="1" fill="#3d89e1"/>
  <rect x="10" y="15" width="1" height="1" fill="#4890e3"/>
  <rect x="11" y="15" width="1" height="1" fill="#4a91e3"/>
  <rect x="12" y="15" width="1" height="1" fill="#4a91e3"/>
  <rect x="13" y="15" width="1" height="1" fill="#478fe3"/>
  <rect x="14" y="15" width="1" height="1" fill="#3c89e1"/>
  <rect x="15" y="15" width="1" height="1" fill="#3c89e1"/>
  <rect x="16" y="15" width="1" height="1" fill="#478fe3"/>
  <rect x="17" y="15" width="1" height="1" fill="#4890e3"/>
  <rect x="18" y="15" width="1" height="1" fill="#4890e3"/>
  <rect x="19" y="15" width="1" height="1" fill="#4890e3"/>
  <rect x="20" y="15" width="1" height="1" fill="#4890e3"/>
  <rect x="21" y="15" width="1" height="1" fill="#4890e3"/>
  <rect x="22" y="15" width="1" height="1" fill="#478fe3"/>
  <rect x="23" y="15" width="1" height="1" fill="#d6e6f9"/>
  <rect x="0" y="16" width="1" height="1" fill="#d7e6f9"/>
  <rect x="1" y="16" width="1" height="1" fill="#4a91e3"/>
  <rect x="2" y="16" width="1" height="1" fill="#4b92e3"/>
  <rect x="3" y="16" width="1" height="1" fill="#4991e3"/>
  <rect x="4" y="16" width="1" height="1" fill="#4890e3"/>
  <rect x="5" y="16" width="1" height="1" fill="#4890e3"/>
  <rect x="6" y="16" width="1" height="1" fill="#4890e3"/>
  <rect x="7" y="16" width="1" height="1" fill="#4990e3"/>
  <rect x="8" y="16" width="1" height="1" fill="#4b92e3"/>
  <rect x="9" y="16" width="1" height="1" fill="#458ee3"/>
  <rect x="10" y="16" width="1" height="1" fill="#438de2"/>
  <rect x="11" y="16" width="1" height="1" fill="#428de2"/>
  <rect x="12" y="16" width="1" height="1" fill="#438de2"/>
  <rect x="13" y="16" width="1" height="1" fill="#438de2"/>
  <rect x="14" y="16" width="1" height="1" fill="#468fe3"/>
  <rect x="15" y="16" width="1" height="1" fill="#4b92e3"/>
  <rect x="16" y="16" width="1" height="1" fill="#4890e3"/>
  <rect x="17" y="16" width="1" height="1" fill="#4890e3"/>
  <rect x="18" y="16" width="1" height="1" fill="#4890e3"/>
  <rect x="19" y="16" width="1" height="1" fill="#4890e3"/>
  <rect x="20" y="16" width="1" height="1" fill="#4991e3"/>
  <rect x="21" y="16" width="1" height="1" fill="#4b92e3"/>
  <rect x="22" y="16" width="1" height="1" fill="#4a91e3"/>
  <rect x="23" y="16" width="1" height="1" fill="#d7e6f9"/>
  <rect x="0" y="17" width="1" height="1" fill="#d3e4f9"/>
  <rect x="1" y="17" width="1" height="1" fill="#3b88e1"/>
  <rect x="2" y="17" width="1" height="1" fill="#3d89e1"/>
  <rect x="3" y="17" width="1" height="1" fill="#438de2"/>
  <rect x="4" y="17" width="1" height="1" fill="#4990e3"/>
  <rect x="5" y="17" width="1" height="1" fill="#4890e3"/>
  <rect x="6" y="17" width="1" height="1" fill="#4890e3"/>
  <rect x="7" y="17" width="1" height="1" fill="#4890e3"/>
  <rect x="8" y="17" width="1" height="1" fill="#4790e3"/>
  <rect x="9" y="17" width="1" height="1" fill="#5c9ce6"/>
  <rect x="10" y="17" width="1" height="1" fill="#5e9de6"/>
  <rect x="11" y="17" width="1" height="1" fill="#5d9de6"/>
  <rect x="12" y="17" width="1" height="1" fill="#5c9ce6"/>
  <rect x="13" y="17" width="1" height="1" fill="#5c9ce6"/>
  <rect x="14" y="17" width="1" height="1" fill="#599ae6"/>
  <rect x="15" y="17" width="1" height="1" fill="#468fe3"/>
  <rect x="16" y="17" width="1" height="1" fill="#4890e3"/>
  <rect x="17" y="17" width="1" height="1" fill="#4890e3"/>
  <rect x="18" y="17" width="1" height="1" fill="#4890e3"/>
  <rect x="19" y="17" width="1" height="1" fill="#4990e3"/>
  <rect x="20" y="17" width="1" height="1" fill="#438de2"/>
  <rect x="21" y="17" width="1" height="1" fill="#3d89e1"/>
  <rect x="22" y="17" width="1" height="1" fill="#3b88e1"/>
  <rect x="23" y="17" width="1" height="1" fill="#d3e4f9"/>
  <rect x="0" y="18" width="1" height="1" fill="#ecf3fc"/>
  <rect x="1" y="18" width="1" height="1" fill="#88b7ed"/>
  <rect x="2" y="18" width="1" height="1" fill="#81b3ec"/>
  <rect x="3" y="18" width="1" height="1" fill="#609fe7"/>
  <rect x="4" y="18" width="1" height="1" fill="#448de2"/>
  <rect x="5" y="18" width="1" height="1" fill="#4991e3"/>
  <rect x="6" y="18" width="1" height="1" fill="#4b92e3"/>
  <rect x="7" y="18" width="1" height="1" fill="#3c88e1"/>
  <rect x="8" y="18" width="1" height="1" fill="#95bfef"/>
  <rect x="9" y="18" width="1" height="1" fill="#ffffff"/>
  <rect x="10" y="18" width="1" height="1" fill="#ffffff"/>
  <rect x="11" y="18" width="1" height="1" fill="#ffffff"/>
  <rect x="12" y="18" width="1" height="1" fill="#ffffff"/>
  <rect x="13" y="18" width="1" height="1" fill="#ffffff"/>
  <rect x="14" y="18" width="1" height="1" fill="#ffffff"/>
  <rect x="15" y="18" width="1" height="1" fill="#91bcee"/>
  <rect x="16" y="18" width="1" height="1" fill="#3c89e1"/>
  <rect x="17" y="18" width="1" height="1" fill="#4b92e3"/>
  <rect x="18" y="18" width="1" height="1" fill="#4991e3"/>
  <rect x="19" y="18" width="1" height="1" fill="#448de2"/>
  <rect x="20" y="18" width="1" height="1" fill="#62a0e7"/>
  <rect x="21" y="18" width="1" height="1" fill="#81b3ec"/>
  <rect x="22" y="18" width="1" height="1" fill="#88b7ed"/>
  <rect x="23" y="18" width="1" height="1" fill="#ecf3fc"/>
  <rect x="0" y="19" width="1" height="1" fill="#ffffff"/>
  <rect x="1" y="19" width="1" height="1" fill="#ffffff"/>
  <rect x="2" y="19" width="1" height="1" fill="#ffffff"/>
  <rect x="3" y="19" width="1" height="1" fill="#96c0ef"/>
  <rect x="4" y="19" width="1" height="1" fill="#3a88e1"/>
  <rect x="5" y="19" width="1" height="1" fill="#4b92e3"/>
  <rect x="6" y="19" width="1" height="1" fill="#4a91e3"/>
  <rect x="7" y="19" width="1" height="1" fill="#418ce2"/>
  <rect x="8" y="19" width="1" height="1" fill="#6fa8e9"/>
  <rect x="9" y="19" width="1" height="1" fill="#bdd7f5"/>
  <rect x="10" y="19" width="1" height="1" fill="#bfd8f5"/>
  <rect x="11" y="19" width="1" height="1" fill="#c1daf6"/>
  <rect x="12" y="19" width="1" height="1" fill="#c2daf6"/>
  <rect x="13" y="19" width="1" height="1" fill="#c2daf6"/>
  <rect x="14" y="19" width="1" height="1" fill="#c2daf6"/>
  <rect x="15" y="19" width="1" height="1" fill="#70a8e9"/>
  <rect x="16" y="19" width="1" height="1" fill="#418ce2"/>
  <rect x="17" y="19" width="1" height="1" fill="#4a91e3"/>
  <rect x="18" y="19" width="1" height="1" fill="#4b92e3"/>
  <rect x="19" y="19" width="1" height="1" fill="#3a88e1"/>
  <rect x="20" y="19" width="1" height="1" fill="#9ec4f0"/>
  <rect x="21" y="19" width="1" height="1" fill="#ffffff"/>
  <rect x="22" y="19" width="1" height="1" fill="#ffffff"/>
  <rect x="23" y="19" width="1" height="1" fill="#ffffff"/>
  <rect x="0" y="20" width="1" height="1" fill="#feffff"/>
  <rect x="1" y="20" width="1" height="1" fill="#fafcff"/>
  <rect x="2" y="20" width="1" height="1" fill="#fdfeff"/>
  <rect x="3" y="20" width="1" height="1" fill="#91bcee"/>
  <rect x="4" y="20" width="1" height="1" fill="#3b88e1"/>
  <rect x="5" y="20" width="1" height="1" fill="#4b92e3"/>
  <rect x="6" y="20" width="1" height="1" fill="#4890e3"/>
  <rect x="7" y="20" width="1" height="1" fill="#4991e3"/>
  <rect x="8" y="20" width="1" height="1" fill="#428ce2"/>
  <rect x="9" y="20" width="1" height="1" fill="#3c89e1"/>
  <rect x="10" y="20" width="1" height="1" fill="#3c89e1"/>
  <rect x="11" y="20" width="1" height="1" fill="#3c89e1"/>
  <rect x="12" y="20" width="1" height="1" fill="#3d89e1"/>
  <rect x="13" y="20" width="1" height="1" fill="#3d89e1"/>
  <rect x="14" y="20" width="1" height="1" fill="#3c89e1"/>
  <rect x="15" y="20" width="1" height="1" fill="#428ce2"/>
  <rect x="16" y="20" width="1" height="1" fill="#4991e3"/>
  <rect x="17" y="20" width="1" height="1" fill="#4890e3"/>
  <rect x="18" y="20" width="1" height="1" fill="#4b92e3"/>
  <rect x="19" y="20" width="1" height="1" fill="#3b88e1"/>
  <rect x="20" y="20" width="1" height="1" fill="#98c0ef"/>
  <rect x="21" y="20" width="1" height="1" fill="#fdfeff"/>
  <rect x="22" y="20" width="1" height="1" fill="#fafcff"/>
  <rect x="23" y="20" width="1" height="1" fill="#feffff"/>
  <rect x="0" y="21" width="1" height="1" fill="#ffffff"/>
  <rect x="1" y="21" width="1" height="1" fill="#fcfdff"/>
  <rect x="2" y="21" width="1" height="1" fill="#ffffff"/>
  <rect x="3" y="21" width="1" height="1" fill="#92bdee"/>
  <rect x="4" y="21" width="1" height="1" fill="#3b88e1"/>
  <rect x="5" y="21" width="1" height="1" fill="#4b92e3"/>
  <rect x="6" y="21" width="1" height="1" fill="#4890e3"/>
  <rect x="7" y="21" width="1" height="1" fill="#4890e3"/>
  <rect x="8" y="21" width="1" height="1" fill="#4991e3"/>
  <rect x="9" y="21" width="1" height="1" fill="#4b92e3"/>
  <rect x="10" y="21" width="1" height="1" fill="#4a91e3"/>
  <rect x="11" y="21" width="1" height="1" fill="#4a92e3"/>
  <rect x="12" y="21" width="1" height="1" fill="#4a91e3"/>
  <rect x="13" y="21" width="1" height="1" fill="#4a91e3"/>
  <rect x="14" y="21" width="1" height="1" fill="#4a91e3"/>
  <rect x="15" y="21" width="1" height="1" fill="#4991e3"/>
  <rect x="16" y="21" width="1" height="1" fill="#4890e3"/>
  <rect x="17" y="21" width="1" height="1" fill="#4890e3"/>
  <rect x="18" y="21" width="1" height="1" fill="#4b92e3"/>
  <rect x="19" y="21" width="1" height="1" fill="#3b88e1"/>
  <rect x="20" y="21" width="1" height="1" fill="#99c1ef"/>
  <rect x="21" y="21" width="1" height="1" fill="#ffffff"/>
  <rect x="22" y="21" width="1" height="1" fill="#fcfdff"/>
  <rect x="23" y="21" width="1" height="1" fill="#ffffff"/>
  <rect x="0" y="22" width="1" height="1" fill="#ffffff"/>
  <rect x="1" y="22" width="1" height="1" fill="#fcfdff"/>
  <rect x="2" y="22" width="1" height="1" fill="#ffffff"/>
  <rect x="3" y="22" width="1" height="1" fill="#90bcee"/>
  <rect x="4" y="22" width="1" height="1" fill="#3b88e1"/>
  <rect x="5" y="22" width="1" height="1" fill="#4b92e3"/>
  <rect x="6" y="22" width="1" height="1" fill="#4890e3"/>
  <rect x="7" y="22" width="1" height="1" fill="#4890e3"/>
  <rect x="8" y="22" width="1" height="1" fill="#4890e3"/>
  <rect x="9" y="22" width="1" height="1" fill="#4890e3"/>
  <rect x="10" y="22" width="1" height="1" fill="#4890e3"/>
  <rect x="11" y="22" width="1" height="1" fill="#4890e3"/>
  <rect x="12" y="22" width="1" height="1" fill="#4890e3"/>
  <rect x="13" y="22" width="1" height="1" fill="#4890e3"/>
  <rect x="14" y="22" width="1" height="1" fill="#4890e3"/>
  <rect x="15" y="22" width="1" height="1" fill="#4890e3"/>
  <rect x="16" y="22" width="1" height="1" fill="#4890e3"/>
  <rect x="17" y="22" width="1" height="1" fill="#4890e3"/>
  <rect x="18" y="22" width="1" height="1" fill="#4b92e3"/>
  <rect x="19" y="22" width="1" height="1" fill="#3b88e1"/>
  <rect x="20" y="22" width="1" height="1" fill="#97c0ef"/>
  <rect x="21" y="22" width="1" height="1" fill="#ffffff"/>
  <rect x="22" y="22" width="1" height="1" fill="#fcfdff"/>
  <rect x="23" y="22" width="1" height="1" fill="#ffffff"/>
  <rect x="0" y="23" width="1" height="1" fill="#ffffff"/>
  <rect x="1" y="23" width="1" height="1" fill="#fcfdff"/>
  <rect x="2" y="23" width="1" height="1" fill="#ffffff"/>
  <rect x="3" y="23" width="1" height="1" fill="#a1c6f0"/>
  <rect x="4" y="23" width="1" height="1" fill="#3c89e1"/>
  <rect x="5" y="23" width="1" height="1" fill="#4b92e3"/>
  <rect x="6" y="23" width="1" height="1" fill="#4890e3"/>
  <rect x="7" y="23" width="1" height="1" fill="#4890e3"/>
  <rect x="8" y="23" width="1" height="1" fill="#4890e3"/>
  <rect x="9" y="23" width="1" height="1" fill="#4890e3"/>
  <rect x="10" y="23" width="1" height="1" fill="#4890e3"/>
  <rect x="11" y="23" width="1" height="1" fill="#4890e3"/>
  <rect x="12" y="23" width="1" height="1" fill="#4890e3"/>
  <rect x="13" y="23" width="1" height="1" fill="#4890e3"/>
  <rect x="14" y="23" width="1" height="1" fill="#4890e3"/>
  <rect x="15" y="23" width="1" height="1" fill="#4890e3"/>
  <rect x="16" y="23" width="1" height="1" fill="#4890e3"/>
  <rect x="17" y="23" width="1" height="1" fill="#4890e3"/>
  <rect x="18" y="23" width="1" height="1" fill="#4b92e3"/>
  <rect x="19" y="23" width="1" height="1" fill="#3c89e1"/>
  <rect x="20" y="23" width="1" height="1" fill="#a7caf1"/>
  <rect x="21" y="23" width="1" height="1" fill="#ffffff"/>
  <rect x="22" y="23" width="1" height="1" fill="#fcfdff"/>
  <rect x="23" y="23" width="1" height="1" fill="#ffffff"/>
</svg>