<svg xmlns="http://www.w3.org/2000/svg" viewBox="0 0 16 16" shape-rendering="crispEdges">
  <rect x="0" y="0" width="1" height="1" fill="#ff1c1c"/>
  <rect x="1" y="0" width="1" height="1" fill="#ff0c0c"/>
  <rect x="2" y="0" width="1" height="1" fill="#ff0a0a"/>
  <rect x="3" y="0" width="1" height="1" fill="#ff2727"/>
  <rect x="4" y="0" width="1" height="1" fill="#ff9e9e"/>
  <rect x="5" y="0" width="1" height="1" fill="#ff7e7e"/>
  <rect x="6" y="0" width="1" height="1" fill="#ff0f0f"/>
  <rect x="7" y="0" width="1" height="1" fill="#ff0a0a"/>
  <rect x="8" y="0" width="1" height="1" fill="#ff0a0a"/>
  <rect x="9" y="0" width="1" height="1" fill="#ff1313"/>
  <rect x="10" y="0" width="1" height="1" fill="#ffa2a2"/>
  <rect x="11" y="0" width="1" height="1" fill="#ffe3e3"/>
  <rect x="12" y="0" width="1" height="1" fill="#ff7a7a"/>
  <rect x="13" y="0" width="1" height="1" fill="#ff0909"/>
  <rect x="14" y="0" width="1" height="1" fill="#ff0c0c"/>
  <rect x="15" y="0" width="1" height="1" fill="#ff1c1c"/>
  <rect x="0" y="1" width="1" height="1" fill="#ff1a1a"/>
  <rect x="1" y="1" width="1" height="1" fill="#ff0101"/>
  <rect x="2" y="1" width="1" height="1" fill="#ff0000"/>
  <rect x="3" y="1" width="1" height="1" fill="#ff9c9c"/>
  <rect x="4" y="1" width="1" height="1" fill="#ffe5e5"/>
  <rect x="5" y="1" width="1" height="1" fill="#ffe6e6"/>
  <rect x="6" y="1" width="1" height="1" fill="#ff5858"/>
  <rect x="7" y="1" width="1" height="1" fill="#ff0000"/>
  <rect x="8" y="1" width="1" height="1" fill="#ff0000"/>
  <rect x="9" y="1" width="1" height="1" fill="#ff3434"/>
  <rect x="10" y="1" width="1" height="1" fill="#ffe0e0"/>
  <rect x="11" y="1" width="1" height="1" fill="#ffd5d5"/>
  <rect x="12" y="1" width="1" height="1" fill="#ffd3d3"/>
  <rect x="13" y="1" width="1" height="1" fill="#ff1111"/>
  <rect x="14" y="1" width="1" height="1" fill="#ff0000"/>
  <rect x="15" y="1" width="1" height="1" fill="#ff1a1a"/>
  <rect x="0" y="2" width="1" height="1" fill="#ff1a1a"/>
  <rect x="1" y="2" width="1" height="1" fill="#ff0303"/>
  <rect x="2" y="2" width="1" height="1" fill="#ff0000"/>
  <rect x="3" y="2" width="1" height="1" fill="#ffa2a2"/>
  <rect x="4" y="2" width="1" height="1" fill="#ffecec"/>
  <rect x="5" y="2" width="1" height="1" fill="#ffeeee"/>
  <rect x="6" y="2" width="1" height="1" fill="#ff5858"/>
  <rect x="7" y="2" width="1" height="1" fill="#ff0000"/>
  <rect x="8" y="2" width="1" height="1" fill="#ff0000"/>
  <rect x="9" y="2" width="1" height="1" fill="#ff3737"/>
  <rect x="10" y="2" width="1" height="1" fill="#ffe8e8"/>
  <rect x="11" y="2" width="1" height="1" fill="#ffe9e9"/>
  <rect x="12" y="2" width="1" height="1" fill="#ffa6a6"/>
  <rect x="13" y="2" width="1" height="1" fill="#ff0606"/>
  <rect x="14" y="2" width="1" height="1" fill="#ff0202"/>
  <rect x="15" y="2" width="1" height="1" fill="#ff1a1a"/>
  <rect x="0" y="3" width="1" height="1" fill="#ff1a1a"/>
  <rect x="1" y="3" width="1" height="1" fill="#ff0202"/>
  <rect x="2" y="3" width="1" height="1" fill="#ff0000"/>
  <rect x="3" y="3" width="1" height="1" fill="#ff1e1e"/>
  <rect x="4" y="3" width="1" height="1" fill="#ff8585"/>
  <rect x="5" y="3" width="1" height="1" fill="#ffa6a6"/>
  <rect x="6" y="3" width="1" height="1" fill="#ffa8a8"/>
  <rect x="7" y="3" width="1" height="1" fill="#ff0000"/>
  <rect x="8" y="3" width="1" height="1" fill="#ff0c0c"/>
  <rect x="9" y="3" width="1" height="1" fill="#ffc3c3"/>
  <rect x="10" y="3" width="1" height="1" fill="#ff7070"/>
  <rect x="11" y="3" width="1" height="1" fill="#ff4545"/>
  <rect x="12" y="3" width="1" height="1" fill="#ff0e0e"/>
  <rect x="13" y="3" width="1" height="1" fill="#ff0000"/>
  <rect x="14" y="3" width="1" height="1" fill="#ff0101"/>
  <rect x="15" y="3" width="1" height="1" fill="#ff1a1a"/>
  <rect x="0" y="4" width="1" height="1" fill="#ff1a1a"/>
  <rect x="1" y="4" width="1" height="1" fill="#ff0000"/>
  <rect x="2" y="4" width="1" height="1" fill="#ff0000"/>
  <rect x="3" y="4" width="1" height="1" fill="#ff0000"/>
  <rect x="4" y="4" width="1" height="1" fill="#ff0000"/>
  <rect x="5" y="4" width="1" height="1" fill="#ff0000"/>
  <rect x="6" y="4" width="1" height="1" fill="#ffa3a3"/>
  <rect x="7" y="4" width="1" height="1" fill="#ff8c8c"/>
  <rect x="8" y="4" width="1" height="1" fill="#ff9e9e"/>
  <rect x="9" y="4" width="1" height="1" fill="#ff8a8a"/>
  <rect x="10" y="4" width="1" height="1" fill="#ff0000"/>
  <rect x="11" y="4" width="1" height="1" fill="#ff0000"/>
  <rect x="12" y="4" width="1" height="1" fill="#ff0000"/>
  <rect x="13" y="4" width="1" height="1" fill="#ff0000"/>
  <rect x="14" y="4" width="1" height="1" fill="#ff0000"/>
  <rect x="15" y="4" width="1" height="1" fill="#ff1a1a"/>
  <rect x="0" y="5" width="1" height="1" fill="#ff1d1d"/>
  <rect x="1" y="5" width="1" height="1" fill="#ff0303"/>
  <rect x="2" y="5" width="1" height="1" fill="#ff7c7c"/>
  <rect x="3" y="5" width="1" height="1" fill="#ffc2c2"/>
  <rect x="4" y="5" width="1" height="1" fill="#ffb8b8"/>
  <rect x="5" y="5" width="1" height="1" fill="#ffb3b3"/>
  <rect x="6" y="5" width="1" height="1" fill="#ffb3b3"/>
  <rect x="7" y="5" width="1" height="1" fill="#ffe2e2"/>
  <rect x="8" y="5" width="1" height="1" fill="#ffdede"/>
  <rect x="9" y="5" width="1" height="1" fill="#ffafaf"/>
  <rect x="10" y="5" width="1" height="1" fill="#ffb5b5"/>
  <rect x="11" y="5" width="1" height="1" fill="#ffb7b7"/>
  <rect x="12" y="5" width="1" height="1" fill="#ffc2c2"/>
  <rect x="13" y="5" width="1" height="1" fill="#ff7979"/>
  <rect x="14" y="5" width="1" height="1" fill="#ff0303"/>
  <rect x="15" y="5" width="1" height="1" fill="#ff1d1d"/>
  <rect x="0" y="6" width="1" height="1" fill="#ff1515"/>
  <rect x="1" y="6" width="1" height="1" fill="#ff0000"/>
  <rect x="2" y="6" width="1" height="1" fill="#ff9e9e"/>
  <rect x="3" y="6" width="1" height="1" fill="#ffeaea"/>
  <rect x="4" y="6" width="1" height="1" fill="#ffdcdc"/>
  <rect x="5" y="6" width="1" height="1" fill="#ffeaea"/>
  <rect x="6" y="6" width="1" height="1" fill="#ffe9e9"/>
  <rect x="7" y="6" width="1" height="1" fill="#ffd3d3"/>
  <rect x="8" y="6" width="1" height="1" fill="#ffd5d5"/>
  <rect x="9" y="6" width="1" height="1" fill="#ffeaea"/>
  <rect x="10" y="6" width="1" height="1" fill="#ffe9e9"/>
  <rect x="11" y="6" width="1" height="1" fill="#ffdcdc"/>
  <rect x="12" y="6" width="1" height="1" fill="#ffecec"/>
  <rect x="13" y="6" width="1" height="1" fill="#ff9999"/>
  <rect x="14" y="6" width="1" height="1" fill="#ff0000"/>
  <rect x="15" y="6" width="1" height="1" fill="#ff1515"/>
  <rect x="0" y="7" width="1" height="1" fill="#ff4f4f"/>
  <rect x="1" y="7" width="1" height="1" fill="#ff8a8a"/>
  <rect x="2" y="7" width="1" height="1" fill="#ffbdbd"/>
  <rect x="3" y="7" width="1" height="1" fill="#ffd8d8"/>
  <rect x="4" y="7" width="1" height="1" fill="#ffd8d8"/>
  <rect x="5" y="7" width="1" height="1" fill="#ff6363"/>
  <rect x="6" y="7" width="1" height="1" fill="#ff6c6c"/>
  <rect x="7" y="7" width="1" height="1" fill="#ffdddd"/>
  <rect x="8" y="7" width="1" height="1" fill="#ffdada"/>
  <rect x="9" y="7" width="1" height="1" fill="#ff6060"/>
  <rect x="10" y="7" width="1" height="1" fill="#ff6767"/>
  <rect x="11" y="7" width="1" height="1" fill="#ffdbdb"/>
  <rect x="12" y="7" width="1" height="1" fill="#ffd8d8"/>
  <rect x="13" y="7" width="1" height="1" fill="#ffbcbc"/>
  <rect x="14" y="7" width="1" height="1" fill="#ff8a8a"/>
  <rect x="15" y="7" width="1" height="1" fill="#ff4f4f"/>
  <rect x="0" y="8" width="1" height="1" fill="#ff7e7e"/>
  <rect x="1" y="8" width="1" height="1" fill="#fff1f1"/>
  <rect x="2" y="8" width="1" height="1" fill="#ffd7d7"/>
  <rect x="3" y="8" width="1" height="1" fill="#ffd8d8"/>
  <rect x="4" y="8" width="1" height="1" fill="#ffd0d0"/>
  <rect x="5" y="8" width="1" height="1" fill="#ff0000"/>
  <rect x="6" y="8" width="1" height="1" fill="#ff0303"/>
  <rect x="7" y="8" width="1" height="1" fill="#ffd9d9"/>
  <rect x="8" y="8" width="1" height="1" fill="#ffd2d2"/>
  <rect x="9" y="8" width="1" height="1" fill="#ff0000"/>
  <rect x="10" y="8" width="1" height="1" fill="#ff0303"/>
  <rect x="11" y="8" width="1" height="1" fill="#ffd7d7"/>
  <rect x="12" y="8" width="1" height="1" fill="#ffd6d6"/>
  <rect x="13" y="8" width="1" height="1" fill="#ffd8d8"/>
  <rect x="14" y="8" width="1" height="1" fill="#fff1f1"/>
  <rect x="15" y="8" width="1" height="1" fill="#ff7e7e"/>
  <rect x="0" y="9" width="1" height="1" fill="#ff7575"/>
  <rect x="1" y="9" width="1" height="1" fill="#ffdede"/>
  <rect x="2" y="9" width="1" height="1" fill="#ffd3d3"/>
  <rect x="3" y="9" width="1" height="1" fill="#ffd6d6"/>
  <rect x="4" y="9" width="1" height="1" fill="#ffdada"/>
  <rect x="5" y="9" width="1" height="1" fill="#ff5959"/>
  <rect x="6" y="9" width="1" height="1" fill="#ff6161"/>
  <rect x="7" y="9" width="1" height="1" fill="#ffdcdc"/>
  <rect x="8" y="9" width="1" height="1" fill="#ffd8d8"/>
  <rect x="9" y="9" width="1" height="1" fill="#ff5d5d"/>
  <rect x="10" y="9" width="1" height="1" fill="#ff6565"/>
  <rect x="11" y="9" width="1" height="1" fill="#ffdede"/>
  <rect x="12" y="9" width="1" height="1" fill="#ffd5d5"/>
  <rect x="13" y="9" width="1" height="1" fill="#ffd3d3"/>
  <rect x="14" y="9" width="1" height="1" fill="#ffdede"/>
  <rect x="15" y="9" width="1" height="1" fill="#ff7575"/>
  <rect x="0" y="10" width="1" height="1" fill="#ff7575"/>
  <rect x="1" y="10" width="1" height="1" fill="#ffdede"/>
  <rect x="2" y="10" width="1" height="1" fill="#ffd3d3"/>
  <rect x="3" y="10" width="1" height="1" fill="#ffd6d6"/>
  <rect x="4" y="10" width="1" height="1" fill="#ffd6d6"/>
  <rect x="5" y="10" width="1" height="1" fill="#ffe2e2"/>
  <rect x="6" y="10" width="1" height="1" fill="#ffe6e6"/>
  <rect x="7" y="10" width="1" height="1" fill="#ffdcdc"/>
  <rect x="8" y="10" width="1" height="1" fill="#ffdcdc"/>
  <rect x="9" y="10" width="1" height="1" fill="#ffe7e7"/>
  <rect x="10" y="10" width="1" height="1" fill="#ffe2e2"/>
  <rect x="11" y="10" width="1" height="1" fill="#ffd6d6"/>
  <rect x="12" y="10" width="1" height="1" fill="#ffd6d6"/>
  <rect x="13" y="10" width="1" height="1" fill="#ffd3d3"/>
  <rect x="14" y="10" width="1" height="1" fill="#ffdede"/>
  <rect x="15" y="10" width="1" height="1" fill="#ff7575"/>
  <rect x="0" y="11" width="1" height="1" fill="#ff7d7d"/>
  <rect x="1" y="11" width="1" height="1" fill="#fff2f2"/>
  <rect x="2" y="11" width="1" height="1" fill="#ffd8d8"/>
  <rect x="3" y="11" width="1" height="1" fill="#ffd5d5"/>
  <rect x="4" y="11" width="1" height="1" fill="#ffd7d7"/>
  <rect x="5" y="11" width="1" height="1" fill="#ffd0d0"/>
  <rect x="6" y="11" width="1" height="1" fill="#ffbcbc"/>
  <rect x="7" y="11" width="1" height="1" fill="#ffbebe"/>
  <rect x="8" y="11" width="1" height="1" fill="#ffbfbf"/>
  <rect x="9" y="11" width="1" height="1" fill="#ffbfbf"/>
  <rect x="10" y="11" width="1" height="1" fill="#ffd1d1"/>
  <rect x="11" y="11" width="1" height="1" fill="#ffd7d7"/>
  <rect x="12" y="11" width="1" height="1" fill="#ffd5d5"/>
  <rect x="13" y="11" width="1" height="1" fill="#ffd9d9"/>
  <rect x="14" y="11" width="1" height="1" fill="#fff2f2"/>
  <rect x="15" y="11" width="1" height="1" fill="#ff7d7d"/>
  <rect x="0" y="12" width="1" height="1" fill="#ff4040"/>
  <rect x="1" y="12" width="1" height="1" fill="#ff6565"/>
  <rect x="2" y="12" width="1" height="1" fill="#ffb5b5"/>
  <rect x="3" y="12" width="1" height="1" fill="#ffdbdb"/>
  <rect x="4" y="12" width="1" height="1" fill="#ffe0e0"/>
  <rect x="5" y="12" width="1" height="1" fill="#ffa2a2"/>
  <rect x="6" y="12" width="1" height="1" fill="#ff0b0b"/>
  <rect x="7" y="12" width="1" height="1" fill="#ff0b0b"/>
  <rect x="8" y="12" width="1" height="1" fill="#ff0b0b"/>
  <rect x="9" y="12" width="1" height="1" fill="#ff0c0c"/>
  <rect x="10" y="12" width="1" height="1" fill="#ffa3a3"/>
  <rect x="11" y="12" width="1" height="1" fill="#ffdfdf"/>
  <rect x="12" y="12" width="1" height="1" fill="#ffdbdb"/>
  <rect x="13" y="12" width="1" height="1" fill="#ffb3b3"/>
  <rect x="14" y="12" width="1" height="1" fill="#ff6565"/>
  <rect x="15" y="12" width="1" height="1" fill="#ff4040"/>
  <rect x="0" y="13" width="1" height="1" fill="#ff1515"/>
  <rect x="1" y="13" width="1" height="1" fill="#ff0000"/>
  <rect x="2" y="13" width="1" height="1" fill="#ff9696"/>
  <rect x="3" y="13" width="1" height="1" fill="#ffe3e3"/>
  <rect x="4" y="13" width="1" height="1" fill="#ffd5d5"/>
  <rect x="5" y="13" width="1" height="1" fill="#ffd1d1"/>
  <rect x="6" y="13" width="1" height="1" fill="#ffb8b8"/>
  <rect x="7" y="13" width="1" height="1" fill="#ffb6b6"/>
  <rect x="8" y="13" width="1" height="1" fill="#ffb5b5"/>
  <rect x="9" y="13" width="1" height="1" fill="#ffb5b5"/>
  <rect x="10" y="13" width="1" height="1" fill="#ffd0d0"/>
  <rect x="11" y="13" width="1" height="1" fill="#ffd5d5"/>
  <rect x="12" y="13" width="1" height="1" fill="#ffe4e4"/>
  <rect x="13" y="13" width="1" height="1" fill="#ff9292"/>
  <rect x="14" y="13" width="1" height="1" fill="#ff0000"/>
  <rect x="15" y="13" width="1" height="1" fill="#ff1515"/>
  <rect x="0" y="14" width="1" height="1" fill="#ff1c1c"/>
  <rect x="1" y="14" width="1" height="1" fill="#ff0101"/>
  <rect x="2" y="14" width="1" height="1" fill="#ff9c9c"/>
  <rect x="3" y="14" width="1" height="1" fill="#ffe2e2"/>
  <rect x="4" y="14" width="1" height="1" fill="#ffd4d4"/>
  <rect x="5" y="14" width="1" height="1" fill="#ffd8d8"/>
  <rect x="6" y="14" width="1" height="1" fill="#ffdede"/>
  <rect x="7" y="14" width="1" height="1" fill="#ffdede"/>
  <rect x="8" y="14" width="1" height="1" fill="#ffdede"/>
  <rect x="9" y="14" width="1" height="1" fill="#ffdede"/>
  <rect x="10" y="14" width="1" height="1" fill="#ffd8d8"/>
  <rect x="11" y="14" width="1" height="1" fill="#ffd4d4"/>
  <rect x="12" y="14" width="1" height="1" fill="#ffe3e3"/>
  <rect x="13" y="14" width="1" height="1" fill="#ff9898"/>
  <rect x="14" y="14" width="1" height="1" fill="#ff0101"/>
  <rect x="15" y="14" width="1" height="1" fill="#ff1c1c"/>
  <rect x="0" y="15" width="1" height="1" fill="#ff1f1f"/>
  <rect x="1" y="15" width="1" height="1" fill="#ff0808"/>
  <rect x="2" y="15" width="1" height="1" fill="#ff9898"/>
  <rect x="3" y="15" width="1" height="1" fill="#ffe2e2"/>
  <rect x="4" y="15" width="1" height="1" fill="#ffd4d4"/>
  <rect x="5" y="15" width="1" height="1" fill="#ffd6d6"/>
  <rect x="6" y="15" width="1" height="1" fill="#ffd5d5"/>
  <rect x="7" y="15" width="1" height="1" fill="#ffd5d5"/>
  <rect x="8" y="15" width="1" height="1" fill="#ffd5d5"/>
  <rect x="9" y="15" width="1" height="1" fill="#ffd5d5"/>
  <rect x="10" y="15" width="1" height="1" fill="#ffd6d6"/>
  <rect x="11" y="15" width="1" height="1" fill="#ffd4d4"/>
  <rect x="12" y="15" width="1" height="1" fill="#ffe3e3"/>
  <rect x="13" y="15" width="1" height="1" fill="#ff9595"/>
  <rect x="14" y="15" width="1" height="1" fill="#ff0808"/>
  <rect x="15" y="15" width="1" height="1" fill="#ff1f1f"/>
</svg>