<svg xmlns="http://www.w3.org/2000/svg" viewBox="0 0 16 16" shape-rendering="crispEdges">
  <rect x="0" y="0" width="1" height="1" fill="#ffffff"/>
  <rect x="1" y="0" width="1" height="1" fill="#fefeff"/>
  <rect x="2" y="0" width="1" height="1" fill="#ffffff"/>
  <rect x="3" y="0" width="1" height="1" fill="#e5effb"/>
  <rect x="4" y="0" width="1" height="1" fill="#7fb2eb"/>
  <rect x="5" y="0" width="1" height="1" fill="#9bc3f0"/>
  <rect x="6" y="0" width="1" height="1" fill="#fafcfe"/>
  <rect x="7" y="0" width="1" height="1" fill="#fefeff"/>
  <rect x="8" y="0" width="1" height="1" fill="#fefeff"/>
  <rect x="9" y="0" width="1" height="1" fill="#f6fafe"/>
  <rect x="10" y="0" width="1" height="1" fill="#7bafeb"/>
  <rect x="11" y="0" width="1" height="1" fill="#3e8ae2"/>
  <rect x="12" y="0" width="1" height="1" fill="#9ec4f0"/>
  <rect x="13" y="0" width="1" height="1" fill="#ffffff"/>
  <rect x="14" y="0" width="1" height="1" fill="#fdfeff"/>
  <rect x="15" y="0" width="1" height="1" fill="#ffffff"/>
  <rect x="0" y="1" width="1" height="1" fill="#ffffff"/>
  <rect x="1" y="1" width="1" height="1" fill="#fefeff"/>
  <rect x="2" y="1" width="1" height="1" fill="#ffffff"/>
  <rect x="3" y="1" width="1" height="1" fill="#78adea"/>
  <rect x="4" y="1" width="1" height="1" fill="#3a88e1"/>
  <rect x="5" y="1" width="1" height="1" fill="#3987e1"/>
  <rect x="6" y="1" width="1" height="1" fill="#b2d1f3"/>
  <rect x="7" y="1" width="1" height="1" fill="#ffffff"/>
  <rect x="8" y="1" width="1" height="1" fill="#feffff"/>
  <rect x="9" y="1" width="1" height="1" fill="#d0e3f8"/>
  <rect x="10" y="1" width="1" height="1" fill="#3f8ae2"/>
  <rect x="11" y="1" width="1" height="1" fill="#4890e3"/>
  <rect x="12" y="1" width="1" height="1" fill="#4991e3"/>
  <rect x="13" y="1" width="1" height="1" fill="#eff5fd"/>
  <rect x="14" y="1" width="1" height="1" fill="#ffffff"/>
  <rect x="15" y="1" width="1" height="1" fill="#fefeff"/>
  <rect x="0" y="2" width="1" height="1" fill="#ffffff"/>
  <rect x="1" y="2" width="1" height="1" fill="#fefeff"/>
  <rect x="2" y="2" width="1" height="1" fill="#ffffff"/>
  <rect x="3" y="2" width="1" height="1" fill="#74abea"/>
  <rect x="4" y="2" width="1" height="1" fill="#3785e0"/>
  <rect x="5" y="2" width="1" height="1" fill="#3584e0"/>
  <rect x="6" y="2" width="1" height="1" fill="#b4d1f4"/>
  <rect x="7" y="2" width="1" height="1" fill="#ffffff"/>
  <rect x="8" y="2" width="1" height="1" fill="#ffffff"/>
  <rect x="9" y="2" width="1" height="1" fill="#d0e3f8"/>
  <rect x="10" y="2" width="1" height="1" fill="#3987e1"/>
  <rect x="11" y="2" width="1" height="1" fill="#3886e1"/>
  <rect x="12" y="2" width="1" height="1" fill="#71a9e9"/>
  <rect x="13" y="2" width="1" height="1" fill="#f9fcfe"/>
  <rect x="14" y="2" width="1" height="1" fill="#fefeff"/>
  <rect x="15" y="2" width="1" height="1" fill="#ffffff"/>
  <rect x="0" y="3" width="1" height="1" fill="#ffffff"/>
  <rect x="1" y="3" width="1" height="1" fill="#fefeff"/>
  <rect x="2" y="3" width="1" height="1" fill="#feffff"/>
  <rect x="3" y="3" width="1" height="1" fill="#e5effb"/>
  <rect x="4" y="3" width="1" height="1" fill="#8dbaee"/>
  <rect x="5" y="3" width="1" height="1" fill="#71a9e9"/>
  <rect x="6" y="3" width="1" height="1" fill="#6fa8e9"/>
  <rect x="7" y="3" width="1" height="1" fill="#ffffff"/>
  <rect x="8" y="3" width="1" height="1" fill="#f5f9fd"/>
  <rect x="9" y="3" width="1" height="1" fill="#589ae5"/>
  <rect x="10" y="3" width="1" height="1" fill="#a0c5f0"/>
  <rect x="11" y="3" width="1" height="1" fill="#c3dbf6"/>
  <rect x="12" y="3" width="1" height="1" fill="#f3f8fd"/>
  <rect x="13" y="3" width="1" height="1" fill="#ffffff"/>
  <rect x="14" y="3" width="1" height="1" fill="#feffff"/>
  <rect x="15" y="3" width="1" height="1" fill="#ffffff"/>
  <rect x="0" y="4" width="1" height="1" fill="#ffffff"/>
  <rect x="1" y="4" width="1" height="1" fill="#ffffff"/>
  <rect x="2" y="4" width="1" height="1" fill="#ffffff"/>
  <rect x="3" y="4" width="1" height="1" fill="#ffffff"/>
  <rect x="4" y="4" width="1" height="1" fill="#ffffff"/>
  <rect x="5" y="4" width="1" height="1" fill="#ffffff"/>
  <rect x="6" y="4" width="1" height="1" fill="#73aaea"/>
  <rect x="7" y="4" width="1" height="1" fill="#87b6ed"/>
  <rect x="8" y="4" width="1" height="1" fill="#78adea"/>
  <rect x="9" y="4" width="1" height="1" fill="#89b8ed"/>
  <rect x="10" y="4" width="1" height="1" fill="#ffffff"/>
  <rect x="11" y="4" width="1" height="1" fill="#ffffff"/>
  <rect x="12" y="4" width="1" height="1" fill="#ffffff"/>
  <rect x="13" y="4" width="1" height="1" fill="#ffffff"/>
  <rect x="14" y="4" width="1" height="1" fill="#ffffff"/>
  <rect x="15" y="4" width="1" height="1" fill="#ffffff"/>
  <rect x="0" y="5" width="1" height="1" fill="#fcfdff"/>
  <rect x="1" y="5" width="1" height="1" fill="#fcfdff"/>
  <rect x="2" y="5" width="1" height="1" fill="#94beef"/>
  <rect x="3" y="5" width="1" height="1" fill="#5a9be5"/>
  <rect x="4" y="5" width="1" height="1" fill="#62a0e7"/>
  <rect x="5" y="5" width="1" height="1" fill="#65a2e8"/>
  <rect x="6" y="5" width="1" height="1" fill="#66a2e8"/>
  <rect x="7" y="5" width="1" height="1" fill="#3e8ae1"/>
  <rect x="8" y="5" width="1" height="1" fill="#428ce2"/>
  <rect x="9" y="5" width="1" height="1" fill="#6aa4e8"/>
  <rect x="10" y="5" width="1" height="1" fill="#64a1e7"/>
  <rect x="11" y="5" width="1" height="1" fill="#63a0e7"/>
  <rect x="12" y="5" width="1" height="1" fill="#5a9ae5"/>
  <rect x="13" y="5" width="1" height="1" fill="#97c0ef"/>
  <rect x="14" y="5" width="1" height="1" fill="#fcfdff"/>
  <rect x="15" y="5" width="1" height="1" fill="#fcfdff"/>
  <rect x="0" y="6" width="1" height="1" fill="#ffffff"/>
  <rect x="1" y="6" width="1" height="1" fill="#ffffff"/>
  <rect x="2" y="6" width="1" height="1" fill="#77aceb"/>
  <rect x="3" y="6" width="1" height="1" fill="#3786e0"/>
  <rect x="4" y="6" width="1" height="1" fill="#448de2"/>
  <rect x="5" y="6" width="1" height="1" fill="#3786e0"/>
  <rect x="6" y="6" width="1" height="1" fill="#3886e1"/>
  <rect x="7" y="6" width="1" height="1" fill="#4a92e3"/>
  <rect x="8" y="6" width="1" height="1" fill="#4991e3"/>
  <rect x="9" y="6" width="1" height="1" fill="#3786e0"/>
  <rect x="10" y="6" width="1" height="1" fill="#3886e1"/>
  <rect x="11" y="6" width="1" height="1" fill="#448de2"/>
  <rect x="12" y="6" width="1" height="1" fill="#3684e0"/>
  <rect x="13" y="6" width="1" height="1" fill="#7cb0eb"/>
  <rect x="14" y="6" width="1" height="1" fill="#ffffff"/>
  <rect x="15" y="6" width="1" height="1" fill="#ffffff"/>
  <rect x="0" y="7" width="1" height="1" fill="#cde1f7"/>
  <rect x="1" y="7" width="1" height="1" fill="#89b8ed"/>
  <rect x="2" y="7" width="1" height="1" fill="#5e9de6"/>
  <rect x="3" y="7" width="1" height="1" fill="#468fe3"/>
  <rect x="4" y="7" width="1" height="1" fill="#468fe3"/>
  <rect x="5" y="7" width="1" height="1" fill="#aacbf2"/>
  <rect x="6" y="7" width="1" height="1" fill="#a2c7f1"/>
  <rect x="7" y="7" width="1" height="1" fill="#428de2"/>
  <rect x="8" y="7" width="1" height="1" fill="#458ee3"/>
  <rect x="9" y="7" width="1" height="1" fill="#adcdf2"/>
  <rect x="10" y="7" width="1" height="1" fill="#a7c9f2"/>
  <rect x="11" y="7" width="1" height="1" fill="#448ee2"/>
  <rect x="12" y="7" width="1" height="1" fill="#468fe3"/>
  <rect x="13" y="7" width="1" height="1" fill="#5f9ee6"/>
  <rect x="14" y="7" width="1" height="1" fill="#89b8ed"/>
  <rect x="15" y="7" width="1" height="1" fill="#cde1f7"/>
  <rect x="0" y="8" width="1" height="1" fill="#9ec4f0"/>
  <rect x="1" y="8" width="1" height="1" fill="#3182df"/>
  <rect x="2" y="8" width="1" height="1" fill="#4890e2"/>
  <rect x="3" y="8" width="1" height="1" fill="#478fe3"/>
  <rect x="4" y="8" width="1" height="1" fill="#4d93e4"/>
  <rect x="5" y="8" width="1" height="1" fill="#ffffff"/>
  <rect x="6" y="8" width="1" height="1" fill="#fcfdff"/>
  <rect x="7" y="8" width="1" height="1" fill="#458fe3"/>
  <rect x="8" y="8" width="1" height="1" fill="#4c92e4"/>
  <rect x="9" y="8" width="1" height="1" fill="#ffffff"/>
  <rect x="10" y="8" width="1" height="1" fill="#fcfdff"/>
  <rect x="11" y="8" width="1" height="1" fill="#4790e3"/>
  <rect x="12" y="8" width="1" height="1" fill="#4890e3"/>
  <rect x="13" y="8" width="1" height="1" fill="#4790e2"/>
  <rect x="14" y="8" width="1" height="1" fill="#3182df"/>
  <rect x="15" y="8" width="1" height="1" fill="#9ec4f0"/>
  <rect x="0" y="9" width="1" height="1" fill="#a5c9f1"/>
  <rect x="1" y="9" width="1" height="1" fill="#418ce1"/>
  <rect x="2" y="9" width="1" height="1" fill="#4b92e3"/>
  <rect x="3" y="9" width="1" height="1" fill="#4890e3"/>
  <rect x="4" y="9" width="1" height="1" fill="#448ee3"/>
  <rect x="5" y="9" width="1" height="1" fill="#b3d1f3"/>
  <rect x="6" y="9" width="1" height="1" fill="#accdf2"/>
  <rect x="7" y="9" width="1" height="1" fill="#448de2"/>
  <rect x="8" y="9" width="1" height="1" fill="#468fe3"/>
  <rect x="9" y="9" width="1" height="1" fill="#afcff3"/>
  <rect x="10" y="9" width="1" height="1" fill="#a8caf2"/>
  <rect x="11" y="9" width="1" height="1" fill="#428ce2"/>
  <rect x="12" y="9" width="1" height="1" fill="#4991e3"/>
  <rect x="13" y="9" width="1" height="1" fill="#4b92e3"/>
  <rect x="14" y="9" width="1" height="1" fill="#418ce1"/>
  <rect x="15" y="9" width="1" height="1" fill="#a5c9f1"/>
  <rect x="0" y="10" width="1" height="1" fill="#a5c9f1"/>
  <rect x="1" y="10" width="1" height="1" fill="#418ce1"/>
  <rect x="2" y="10" width="1" height="1" fill="#4b91e3"/>
  <rect x="3" y="10" width="1" height="1" fill="#4890e3"/>
  <rect x="4" y="10" width="1" height="1" fill="#4890e3"/>
  <rect x="5" y="10" width="1" height="1" fill="#3e8ae1"/>
  <rect x="6" y="10" width="1" height="1" fill="#3a88e1"/>
  <rect x="7" y="10" width="1" height="1" fill="#438de2"/>
  <rect x="8" y="10" width="1" height="1" fill="#438de2"/>
  <rect x="9" y="10" width="1" height="1" fill="#3a87e1"/>
  <rect x="10" y="10" width="1" height="1" fill="#3e8ae1"/>
  <rect x="11" y="10" width="1" height="1" fill="#4890e3"/>
  <rect x="12" y="10" width="1" height="1" fill="#4890e3"/>
  <rect x="13" y="10" width="1" height="1" fill="#4b91e3"/>
  <rect x="14" y="10" width="1" height="1" fill="#418ce1"/>
  <rect x="15" y="10" width="1" height="1" fill="#a5c9f1"/>
  <rect x="0" y="11" width="1" height="1" fill="#9ec5f0"/>
  <rect x="1" y="11" width="1" height="1" fill="#3082df"/>
  <rect x="2" y="11" width="1" height="1" fill="#478fe2"/>
  <rect x="3" y="11" width="1" height="1" fill="#4991e3"/>
  <rect x="4" y="11" width="1" height="1" fill="#4790e3"/>
  <rect x="5" y="11" width="1" height="1" fill="#4d93e4"/>
  <rect x="6" y="11" width="1" height="1" fill="#5e9ee6"/>
  <rect x="7" y="11" width="1" height="1" fill="#5d9de6"/>
  <rect x="8" y="11" width="1" height="1" fill="#5c9ce6"/>
  <rect x="9" y="11" width="1" height="1" fill="#5c9ce6"/>
  <rect x="10" y="11" width="1" height="1" fill="#4c93e4"/>
  <rect x="11" y="11" width="1" height="1" fill="#4790e3"/>
  <rect x="12" y="11" width="1" height="1" fill="#4991e3"/>
  <rect x="13" y="11" width="1" height="1" fill="#468fe2"/>
  <rect x="14" y="11" width="1" height="1" fill="#3082df"/>
  <rect x="15" y="11" width="1" height="1" fill="#9ec5f0"/>
  <rect x="0" y="12" width="1" height="1" fill="#dbe9fa"/>
  <rect x="1" y="12" width="1" height="1" fill="#a8caf2"/>
  <rect x="2" y="12" width="1" height="1" fill="#64a1e7"/>
  <rect x="3" y="12" width="1" height="1" fill="#448ee2"/>
  <rect x="4" y="12" width="1" height="1" fill="#408be2"/>
  <rect x="5" y="12" width="1" height="1" fill="#75abea"/>
  <rect x="6" y="12" width="1" height="1" fill="#f5f9fe"/>
  <rect x="7" y="12" width="1" height="1" fill="#f5f9fe"/>
  <rect x="8" y="12" width="1" height="1" fill="#f5f9fe"/>
  <rect x="9" y="12" width="1" height="1" fill="#f5f9fd"/>
  <rect x="10" y="12" width="1" height="1" fill="#73aaea"/>
  <rect x="11" y="12" width="1" height="1" fill="#418be2"/>
  <rect x="12" y="12" width="1" height="1" fill="#448ee2"/>
  <rect x="13" y="12" width="1" height="1" fill="#66a2e7"/>
  <rect x="14" y="12" width="1" height="1" fill="#a8caf2"/>
  <rect x="15" y="12" width="1" height="1" fill="#dbe9fa"/>
  <rect x="0" y="13" width="1" height="1" fill="#ffffff"/>
  <rect x="1" y="13" width="1" height="1" fill="#ffffff"/>
  <rect x="2" y="13" width="1" height="1" fill="#7eb0ec"/>
  <rect x="3" y="13" width="1" height="1" fill="#3d8ae1"/>
  <rect x="4" y="13" width="1" height="1" fill="#4991e3"/>
  <rect x="5" y="13" width="1" height="1" fill="#4c93e4"/>
  <rect x="6" y="13" width="1" height="1" fill="#62a0e7"/>
  <rect x="7" y="13" width="1" height="1" fill="#63a1e7"/>
  <rect x="8" y="13" width="1" height="1" fill="#64a1e7"/>
  <rect x="9" y="13" width="1" height="1" fill="#64a1e7"/>
  <rect x="10" y="13" width="1" height="1" fill="#4d93e4"/>
  <rect x="11" y="13" width="1" height="1" fill="#4991e3"/>
  <rect x="12" y="13" width="1" height="1" fill="#3c89e1"/>
  <rect x="13" y="13" width="1" height="1" fill="#82b3ec"/>
  <rect x="14" y="13" width="1" height="1" fill="#ffffff"/>
  <rect x="15" y="13" width="1" height="1" fill="#ffffff"/>
  <rect x="0" y="14" width="1" height="1" fill="#fcfdff"/>
  <rect x="1" y="14" width="1" height="1" fill="#fcfdff"/>
  <rect x="2" y="14" width="1" height="1" fill="#78adeb"/>
  <rect x="3" y="14" width="1" height="1" fill="#3e8ae1"/>
  <rect x="4" y="14" width="1" height="1" fill="#4a91e3"/>
  <rect x="5" y="14" width="1" height="1" fill="#478fe3"/>
  <rect x="6" y="14" width="1" height="1" fill="#428ce2"/>
  <rect x="7" y="14" width="1" height="1" fill="#428ce2"/>
  <rect x="8" y="14" width="1" height="1" fill="#418ce2"/>
  <rect x="9" y="14" width="1" height="1" fill="#418ce2"/>
  <rect x="10" y="14" width="1" height="1" fill="#478fe3"/>
  <rect x="11" y="14" width="1" height="1" fill="#4a91e3"/>
  <rect x="12" y="14" width="1" height="1" fill="#3d89e1"/>
  <rect x="13" y="14" width="1" height="1" fill="#7cb0eb"/>
  <rect x="14" y="14" width="1" height="1" fill="#fcfdff"/>
  <rect x="15" y="14" width="1" height="1" fill="#fcfdff"/>
  <rect x="0" y="15" width="1" height="1" fill="#fdfeff"/>
  <rect x="1" y="15" width="1" height="1" fill="#ffffff"/>
  <rect x="2" y="15" width="1" height="1" fill="#80b2ec"/>
  <rect x="3" y="15" width="1" height="1" fill="#3d8ae1"/>
  <rect x="4" y="15" width="1" height="1" fill="#4a91e3"/>
  <rect x="5" y="15" width="1" height="1" fill="#4890e3"/>
  <rect x="6" y="15" width="1" height="1" fill="#4991e3"/>
  <rect x="7" y="15" width="1" height="1" fill="#4991e3"/>
  <rect x="8" y="15" width="1" height="1" fill="#4991e3"/>
  <rect x="9" y="15" width="1" height="1" fill="#4991e3"/>
  <rect x="10" y="15" width="1" height="1" fill="#4890e3"/>
  <rect x="11" y="15" width="1" height="1" fill="#4a91e3"/>
  <rect x="12" y="15" width="1" height="1" fill="#3d89e1"/>
  <rect x="13" y="15" width="1" height="1" fill="#84b5ec"/>
  <rect x="14" y="15" width="1" height="1" fill="#ffffff"/>
  <rect x="15" y="15" width="1" height="1" fill="#fdfeff"/>
</svg>