<?xml version="1.0" encoding="UTF-8"?>
<!DOCTYPE svg PUBLIC "-//W3C//DTD SVG 1.1//EN" "http://www.w3.org/Graphics/SVG/1.1/DTD/svg11.dtd">
<svg version="1.1" xmlns="http://www.w3.org/2000/svg" xmlns:xlink="http://www.w3.org/1999/xlink" x="0" y="0" width="984.171" height="1055.064" viewBox="0, 0, 984.171, 1055.064">
  <!-- White background (no transparency) -->
  <rect x="0" y="0" width="984.171" height="1055.064" fill="#ffffff"/>
  <!-- Border -->
  <rect x="0" y="0" width="984.171" height="1055.064" fill="none" stroke="#d0d7de" stroke-width="20"/>
  <g id="Calque_2" transform="translate(-95.471, -71.305)">
    <path d="M810.67,71.305 C871.884,71.305 921.508,120.929 921.508,182.143 C921.508,243.357 871.884,292.98 810.67,292.98 C797.687,292.961 784.764,290.708 772.561,286.255 C769.263,285.052 766.095,283.521 762.862,282.154 L656.84,409.032 L934.225,409.032 C950.592,409.033 963.8,422.349 963.8,438.703 L963.8,558.246 L1046.357,558.246 C1052.297,558.247 1058.05,559.06 1062.872,560.672 C1066.086,561.747 1068.998,563.188 1071.602,565.247 C1076.329,568.983 1079.641,574.395 1079.641,581.357 L1079.641,869.494 C1079.641,876.457 1076.329,881.868 1071.602,885.605 C1068.998,887.664 1066.086,889.105 1062.872,890.179 C1058.05,891.792 1052.297,892.605 1046.356,892.605 L963.8,892.605 L963.8,1096.698 C963.8,1113.052 950.592,1126.369 934.225,1126.369 L239.351,1126.369 C222.984,1126.369 209.776,1113.052 209.776,1096.699 L209.776,892.605 L128.756,892.605 C122.815,892.605 117.062,891.792 112.24,890.179 C109.026,889.105 106.114,887.664 103.51,885.605 C98.783,881.869 95.471,876.457 95.471,869.495 L95.471,581.356 C95.471,574.394 98.783,568.983 103.51,565.247 C106.115,563.188 109.026,561.747 112.24,560.672 C117.062,559.06 122.815,558.247 128.756,558.247 L209.776,558.246 L209.776,438.702 C209.776,422.349 222.984,409.033 239.351,409.033 L510.405,409.033 L421.702,305.697 C408.285,311.821 393.61,314 378.987,314.37 C317.773,314.37 268.15,264.747 268.15,203.533 C268.15,142.319 317.773,92.695 378.987,92.695 L378.987,92.695 C440.201,92.695 489.825,142.319 489.825,203.533 C489.64,222.852 484.338,245.375 473.416,261.543 L583.909,390.262 L713.481,235.201 C704.103,219.043 700.301,200.644 699.833,182.143 C699.833,120.929 749.457,71.305 810.67,71.305 L810.67,71.305 z M471.793,858.112 C450.53,858.001 433.203,875.148 433.092,896.41 C432.98,917.673 450.127,935 471.39,935.111 L702.619,936.322 C723.882,936.433 741.209,919.287 741.32,898.024 C741.431,876.761 724.285,859.434 703.022,859.323 L471.793,858.112 z M463.305,553.908 L443.95,553.908 C433.778,553.908 424.395,556.945 416.569,562.05 C411.172,565.57 406.999,569.707 403.665,574.202 C399.87,579.318 397.582,584.247 396.015,589.242 C394.322,594.638 393.627,599.87 393.627,604.935 L393.627,662.88 C393.627,667.946 394.322,673.178 396.015,678.574 C397.582,683.569 399.87,688.497 403.665,693.614 C406.999,698.108 411.172,702.246 416.569,705.766 C424.395,710.871 433.778,713.908 443.95,713.908 L463.305,713.908 C473.477,713.908 482.859,710.871 490.686,705.766 C496.082,702.246 500.256,698.108 503.589,693.614 C507.385,688.497 509.673,683.569 511.24,678.574 C512.933,673.178 513.627,667.946 513.627,662.88 L513.627,604.935 C513.627,599.87 512.933,594.638 511.24,589.242 C509.673,584.247 507.385,579.318 503.589,574.202 C500.256,569.707 496.082,565.57 490.686,562.05 C482.859,556.945 473.477,553.908 463.305,553.908 z M727.313,552.281 L707.958,552.281 C697.785,552.281 688.403,555.318 680.577,560.423 C675.18,563.943 671.007,568.081 667.673,572.575 C663.878,577.692 661.589,582.62 660.022,587.615 C658.33,593.011 657.635,598.243 657.635,603.309 L657.635,661.253 C657.635,666.319 658.33,671.551 660.022,676.947 C661.589,681.942 663.878,686.871 667.673,691.987 C671.007,696.482 675.18,700.619 680.577,704.139 C688.403,709.244 697.785,712.281 707.958,712.281 L727.313,712.281 C737.485,712.281 746.867,709.244 754.693,704.139 C760.09,700.619 764.264,696.482 767.597,691.987 C771.392,686.871 773.681,681.942 775.248,676.947 C776.941,671.551 777.635,666.319 777.635,661.253 L777.635,603.309 C777.635,598.243 776.941,593.011 775.248,587.615 C773.681,582.62 771.392,577.692 767.597,572.575 C764.264,568.081 760.09,563.943 754.693,560.423 C746.867,555.318 737.485,552.281 727.313,552.281 z" fill="#4890E3"/>
  </g>
</svg>
