<svg xmlns="http://www.w3.org/2000/svg" viewBox="0 0 24 24" shape-rendering="crispEdges">
  <rect x="0" y="0" width="1" height="1" fill="#ffffff"/>
  <rect x="1" y="0" width="1" height="1" fill="#ff0a0a"/>
  <rect x="2" y="0" width="1" height="1" fill="#ff1111"/>
  <rect x="3" y="0" width="1" height="1" fill="#ff0f0f"/>
  <rect x="4" y="0" width="1" height="1" fill="#ff0e0e"/>
  <rect x="5" y="0" width="1" height="1" fill="#ff1313"/>
  <rect x="6" y="0" width="1" height="1" fill="#ff6868"/>
  <rect x="7" y="0" width="1" height="1" fill="#ff8585"/>
  <rect x="8" y="0" width="1" height="1" fill="#ff3a3a"/>
  <rect x="9" y="0" width="1" height="1" fill="#ff0808"/>
  <rect x="10" y="0" width="1" height="1" fill="#ff0f0f"/>
  <rect x="11" y="0" width="1" height="1" fill="#ff0e0e"/>
  <rect x="12" y="0" width="1" height="1" fill="#ff0e0e"/>
  <rect x="13" y="0" width="1" height="1" fill="#ff1010"/>
  <rect x="14" y="0" width="1" height="1" fill="#ff0c0c"/>
  <rect x="15" y="0" width="1" height="1" fill="#ff6c6c"/>
  <rect x="16" y="0" width="1" height="1" fill="#ffd4d4"/>
  <rect x="17" y="0" width="1" height="1" fill="#ffd8d8"/>
  <rect x="18" y="0" width="1" height="1" fill="#ff8383"/>
  <rect x="19" y="0" width="1" height="1" fill="#ff0f0f"/>
  <rect x="20" y="0" width="1" height="1" fill="#ff1010"/>
  <rect x="21" y="0" width="1" height="1" fill="#ff1111"/>
  <rect x="22" y="0" width="1" height="1" fill="#ff0a0a"/>
  <rect x="23" y="0" width="1" height="1" fill="#ffffff"/>
  <rect x="0" y="1" width="1" height="1" fill="#ffffff"/>
  <rect x="1" y="1" width="1" height="1" fill="#ff0000"/>
  <rect x="2" y="1" width="1" height="1" fill="#ff0000"/>
  <rect x="3" y="1" width="1" height="1" fill="#ff0000"/>
  <rect x="4" y="1" width="1" height="1" fill="#ff0000"/>
  <rect x="5" y="1" width="1" height="1" fill="#ff9090"/>
  <rect x="6" y="1" width="1" height="1" fill="#ffe5e5"/>
  <rect x="7" y="1" width="1" height="1" fill="#ffdede"/>
  <rect x="8" y="1" width="1" height="1" fill="#ffd4d4"/>
  <rect x="9" y="1" width="1" height="1" fill="#ff3535"/>
  <rect x="10" y="1" width="1" height="1" fill="#ff0000"/>
  <rect x="11" y="1" width="1" height="1" fill="#ff0000"/>
  <rect x="12" y="1" width="1" height="1" fill="#ff0000"/>
  <rect x="13" y="1" width="1" height="1" fill="#ff0000"/>
  <rect x="14" y="1" width="1" height="1" fill="#ff2e2e"/>
  <rect x="15" y="1" width="1" height="1" fill="#ffdcdc"/>
  <rect x="16" y="1" width="1" height="1" fill="#ffd8d8"/>
  <rect x="17" y="1" width="1" height="1" fill="#ffd5d5"/>
  <rect x="18" y="1" width="1" height="1" fill="#ffe5e5"/>
  <rect x="19" y="1" width="1" height="1" fill="#ff4949"/>
  <rect x="20" y="1" width="1" height="1" fill="#ff0000"/>
  <rect x="21" y="1" width="1" height="1" fill="#ff0303"/>
  <rect x="22" y="1" width="1" height="1" fill="#ff0000"/>
  <rect x="23" y="1" width="1" height="1" fill="#ffffff"/>
  <rect x="0" y="2" width="1" height="1" fill="#ffffff"/>
  <rect x="1" y="2" width="1" height="1" fill="#ff0000"/>
  <rect x="2" y="2" width="1" height="1" fill="#ff0505"/>
  <rect x="3" y="2" width="1" height="1" fill="#ff0000"/>
  <rect x="4" y="2" width="1" height="1" fill="#ff3030"/>
  <rect x="5" y="2" width="1" height="1" fill="#ffe2e2"/>
  <rect x="6" y="2" width="1" height="1" fill="#ffd4d4"/>
  <rect x="7" y="2" width="1" height="1" fill="#ffd1d1"/>
  <rect x="8" y="2" width="1" height="1" fill="#ffe5e5"/>
  <rect x="9" y="2" width="1" height="1" fill="#ffa0a0"/>
  <rect x="10" y="2" width="1" height="1" fill="#ff0000"/>
  <rect x="11" y="2" width="1" height="1" fill="#ff0202"/>
  <rect x="12" y="2" width="1" height="1" fill="#ff0303"/>
  <rect x="13" y="2" width="1" height="1" fill="#ff0101"/>
  <rect x="14" y="2" width="1" height="1" fill="#ff6161"/>
  <rect x="15" y="2" width="1" height="1" fill="#ffe5e5"/>
  <rect x="16" y="2" width="1" height="1" fill="#ffd1d1"/>
  <rect x="17" y="2" width="1" height="1" fill="#ffd2d2"/>
  <rect x="18" y="2" width="1" height="1" fill="#ffe3e3"/>
  <rect x="19" y="2" width="1" height="1" fill="#ff8585"/>
  <rect x="20" y="2" width="1" height="1" fill="#ff0000"/>
  <rect x="21" y="2" width="1" height="1" fill="#ff0505"/>
  <rect x="22" y="2" width="1" height="1" fill="#ff0000"/>
  <rect x="23" y="2" width="1" height="1" fill="#ffffff"/>
  <rect x="0" y="3" width="1" height="1" fill="#ffffff"/>
  <rect x="1" y="3" width="1" height="1" fill="#ff0000"/>
  <rect x="2" y="3" width="1" height="1" fill="#ff0505"/>
  <rect x="3" y="3" width="1" height="1" fill="#ff0000"/>
  <rect x="4" y="3" width="1" height="1" fill="#ff3030"/>
  <rect x="5" y="3" width="1" height="1" fill="#ffe1e1"/>
  <rect x="6" y="3" width="1" height="1" fill="#ffd2d2"/>
  <rect x="7" y="3" width="1" height="1" fill="#ffd0d0"/>
  <rect x="8" y="3" width="1" height="1" fill="#ffe0e0"/>
  <rect x="9" y="3" width="1" height="1" fill="#ff9191"/>
  <rect x="10" y="3" width="1" height="1" fill="#ff0101"/>
  <rect x="11" y="3" width="1" height="1" fill="#ff0101"/>
  <rect x="12" y="3" width="1" height="1" fill="#ff0303"/>
  <rect x="13" y="3" width="1" height="1" fill="#ff0000"/>
  <rect x="14" y="3" width="1" height="1" fill="#ff3838"/>
  <rect x="15" y="3" width="1" height="1" fill="#ffe2e2"/>
  <rect x="16" y="3" width="1" height="1" fill="#ffd9d9"/>
  <rect x="17" y="3" width="1" height="1" fill="#ffd8d8"/>
  <rect x="18" y="3" width="1" height="1" fill="#ffeded"/>
  <rect x="19" y="3" width="1" height="1" fill="#ff5151"/>
  <rect x="20" y="3" width="1" height="1" fill="#ff0000"/>
  <rect x="21" y="3" width="1" height="1" fill="#ff0505"/>
  <rect x="22" y="3" width="1" height="1" fill="#ff0000"/>
  <rect x="23" y="3" width="1" height="1" fill="#ffffff"/>
  <rect x="0" y="4" width="1" height="1" fill="#ffffff"/>
  <rect x="1" y="4" width="1" height="1" fill="#ff0000"/>
  <rect x="2" y="4" width="1" height="1" fill="#ff0202"/>
  <rect x="3" y="4" width="1" height="1" fill="#ff0101"/>
  <rect x="4" y="4" width="1" height="1" fill="#ff0303"/>
  <rect x="5" y="4" width="1" height="1" fill="#ff9797"/>
  <rect x="6" y="4" width="1" height="1" fill="#ffeded"/>
  <rect x="7" y="4" width="1" height="1" fill="#ffe1e1"/>
  <rect x="8" y="4" width="1" height="1" fill="#ffeded"/>
  <rect x="9" y="4" width="1" height="1" fill="#ff8383"/>
  <rect x="10" y="4" width="1" height="1" fill="#ff0000"/>
  <rect x="11" y="4" width="1" height="1" fill="#ff0404"/>
  <rect x="12" y="4" width="1" height="1" fill="#ff0101"/>
  <rect x="13" y="4" width="1" height="1" fill="#ff0101"/>
  <rect x="14" y="4" width="1" height="1" fill="#ff9e9e"/>
  <rect x="15" y="4" width="1" height="1" fill="#ffdcdc"/>
  <rect x="16" y="4" width="1" height="1" fill="#ffbfbf"/>
  <rect x="17" y="4" width="1" height="1" fill="#ffcece"/>
  <rect x="18" y="4" width="1" height="1" fill="#ff7878"/>
  <rect x="19" y="4" width="1" height="1" fill="#ff0101"/>
  <rect x="20" y="4" width="1" height="1" fill="#ff0101"/>
  <rect x="21" y="4" width="1" height="1" fill="#ff0202"/>
  <rect x="22" y="4" width="1" height="1" fill="#ff0000"/>
  <rect x="23" y="4" width="1" height="1" fill="#ffffff"/>
  <rect x="0" y="5" width="1" height="1" fill="#ffffff"/>
  <rect x="1" y="5" width="1" height="1" fill="#ff0000"/>
  <rect x="2" y="5" width="1" height="1" fill="#ff0202"/>
  <rect x="3" y="5" width="1" height="1" fill="#ff0101"/>
  <rect x="4" y="5" width="1" height="1" fill="#ff0303"/>
  <rect x="5" y="5" width="1" height="1" fill="#ff0808"/>
  <rect x="6" y="5" width="1" height="1" fill="#ff5c5c"/>
  <rect x="7" y="5" width="1" height="1" fill="#ff6d6d"/>
  <rect x="8" y="5" width="1" height="1" fill="#ff8f8f"/>
  <rect x="9" y="5" width="1" height="1" fill="#fff3f3"/>
  <rect x="10" y="5" width="1" height="1" fill="#ff5656"/>
  <rect x="11" y="5" width="1" height="1" fill="#ff0000"/>
  <rect x="12" y="5" width="1" height="1" fill="#ff0000"/>
  <rect x="13" y="5" width="1" height="1" fill="#ff8181"/>
  <rect x="14" y="5" width="1" height="1" fill="#fffafa"/>
  <rect x="15" y="5" width="1" height="1" fill="#ff5656"/>
  <rect x="16" y="5" width="1" height="1" fill="#ff0e0e"/>
  <rect x="17" y="5" width="1" height="1" fill="#ff1313"/>
  <rect x="18" y="5" width="1" height="1" fill="#ff0000"/>
  <rect x="19" y="5" width="1" height="1" fill="#ff0101"/>
  <rect x="20" y="5" width="1" height="1" fill="#ff0101"/>
  <rect x="21" y="5" width="1" height="1" fill="#ff0202"/>
  <rect x="22" y="5" width="1" height="1" fill="#ff0000"/>
  <rect x="23" y="5" width="1" height="1" fill="#ffffff"/>
  <rect x="0" y="6" width="1" height="1" fill="#ffffff"/>
  <rect x="1" y="6" width="1" height="1" fill="#ff0000"/>
  <rect x="2" y="6" width="1" height="1" fill="#ff0202"/>
  <rect x="3" y="6" width="1" height="1" fill="#ff0000"/>
  <rect x="4" y="6" width="1" height="1" fill="#ff0000"/>
  <rect x="5" y="6" width="1" height="1" fill="#ff0000"/>
  <rect x="6" y="6" width="1" height="1" fill="#ff0000"/>
  <rect x="7" y="6" width="1" height="1" fill="#ff0000"/>
  <rect x="8" y="6" width="1" height="1" fill="#ff0000"/>
  <rect x="9" y="6" width="1" height="1" fill="#ff9292"/>
  <rect x="10" y="6" width="1" height="1" fill="#ffe9e9"/>
  <rect x="11" y="6" width="1" height="1" fill="#ff3535"/>
  <rect x="12" y="6" width="1" height="1" fill="#ff5656"/>
  <rect x="13" y="6" width="1" height="1" fill="#fff1f1"/>
  <rect x="14" y="6" width="1" height="1" fill="#ff6666"/>
  <rect x="15" y="6" width="1" height="1" fill="#ff0000"/>
  <rect x="16" y="6" width="1" height="1" fill="#ff0000"/>
  <rect x="17" y="6" width="1" height="1" fill="#ff0000"/>
  <rect x="18" y="6" width="1" height="1" fill="#ff0000"/>
  <rect x="19" y="6" width="1" height="1" fill="#ff0000"/>
  <rect x="20" y="6" width="1" height="1" fill="#ff0000"/>
  <rect x="21" y="6" width="1" height="1" fill="#ff0202"/>
  <rect x="22" y="6" width="1" height="1" fill="#ff0000"/>
  <rect x="23" y="6" width="1" height="1" fill="#ffffff"/>
  <rect x="0" y="7" width="1" height="1" fill="#ffffff"/>
  <rect x="1" y="7" width="1" height="1" fill="#ff0000"/>
  <rect x="2" y="7" width="1" height="1" fill="#ff0101"/>
  <rect x="3" y="7" width="1" height="1" fill="#ff1818"/>
  <rect x="4" y="7" width="1" height="1" fill="#ff4848"/>
  <rect x="5" y="7" width="1" height="1" fill="#ff4545"/>
  <rect x="6" y="7" width="1" height="1" fill="#ff4747"/>
  <rect x="7" y="7" width="1" height="1" fill="#ff4949"/>
  <rect x="8" y="7" width="1" height="1" fill="#ff4545"/>
  <rect x="9" y="7" width="1" height="1" fill="#ff5151"/>
  <rect x="10" y="7" width="1" height="1" fill="#ffd2d2"/>
  <rect x="11" y="7" width="1" height="1" fill="#ffd1d1"/>
  <rect x="12" y="7" width="1" height="1" fill="#ffd9d9"/>
  <rect x="13" y="7" width="1" height="1" fill="#ffbfbf"/>
  <rect x="14" y="7" width="1" height="1" fill="#ff4343"/>
  <rect x="15" y="7" width="1" height="1" fill="#ff4646"/>
  <rect x="16" y="7" width="1" height="1" fill="#ff4545"/>
  <rect x="17" y="7" width="1" height="1" fill="#ff4545"/>
  <rect x="18" y="7" width="1" height="1" fill="#ff4343"/>
  <rect x="19" y="7" width="1" height="1" fill="#ff4747"/>
  <rect x="20" y="7" width="1" height="1" fill="#ff1616"/>
  <rect x="21" y="7" width="1" height="1" fill="#ff0101"/>
  <rect x="22" y="7" width="1" height="1" fill="#ff0000"/>
  <rect x="23" y="7" width="1" height="1" fill="#ffffff"/>
  <rect x="0" y="8" width="1" height="1" fill="#ffffff"/>
  <rect x="1" y="8" width="1" height="1" fill="#ff0000"/>
  <rect x="2" y="8" width="1" height="1" fill="#ff0000"/>
  <rect x="3" y="8" width="1" height="1" fill="#ff8080"/>
  <rect x="4" y="8" width="1" height="1" fill="#fff3f3"/>
  <rect x="5" y="8" width="1" height="1" fill="#ffdfdf"/>
  <rect x="6" y="8" width="1" height="1" fill="#ffe2e2"/>
  <rect x="7" y="8" width="1" height="1" fill="#ffe2e2"/>
  <rect x="8" y="8" width="1" height="1" fill="#ffe2e2"/>
  <rect x="9" y="8" width="1" height="1" fill="#ffe0e0"/>
  <rect x="10" y="8" width="1" height="1" fill="#ffd4d4"/>
  <rect x="11" y="8" width="1" height="1" fill="#ffd8d8"/>
  <rect x="12" y="8" width="1" height="1" fill="#ffd6d6"/>
  <rect x="13" y="8" width="1" height="1" fill="#ffd5d5"/>
  <rect x="14" y="8" width="1" height="1" fill="#ffe2e2"/>
  <rect x="15" y="8" width="1" height="1" fill="#ffe2e2"/>
  <rect x="16" y="8" width="1" height="1" fill="#ffe2e2"/>
  <rect x="17" y="8" width="1" height="1" fill="#ffe2e2"/>
  <rect x="18" y="8" width="1" height="1" fill="#ffdfdf"/>
  <rect x="19" y="8" width="1" height="1" fill="#fff2f2"/>
  <rect x="20" y="8" width="1" height="1" fill="#ff7878"/>
  <rect x="21" y="8" width="1" height="1" fill="#ff0000"/>
  <rect x="22" y="8" width="1" height="1" fill="#ff0000"/>
  <rect x="23" y="8" width="1" height="1" fill="#ffffff"/>
  <rect x="0" y="9" width="1" height="1" fill="#ffffff"/>
  <rect x="1" y="9" width="1" height="1" fill="#ff0000"/>
  <rect x="2" y="9" width="1" height="1" fill="#ff0000"/>
  <rect x="3" y="9" width="1" height="1" fill="#ff8080"/>
  <rect x="4" y="9" width="1" height="1" fill="#ffe3e3"/>
  <rect x="5" y="9" width="1" height="1" fill="#ffd1d1"/>
  <rect x="6" y="9" width="1" height="1" fill="#ffd4d4"/>
  <rect x="7" y="9" width="1" height="1" fill="#ffd2d2"/>
  <rect x="8" y="9" width="1" height="1" fill="#ffd6d6"/>
  <rect x="9" y="9" width="1" height="1" fill="#ffd6d6"/>
  <rect x="10" y="9" width="1" height="1" fill="#ffd5d5"/>
  <rect x="11" y="9" width="1" height="1" fill="#ffd6d6"/>
  <rect x="12" y="9" width="1" height="1" fill="#ffd6d6"/>
  <rect x="13" y="9" width="1" height="1" fill="#ffd5d5"/>
  <rect x="14" y="9" width="1" height="1" fill="#ffd8d8"/>
  <rect x="15" y="9" width="1" height="1" fill="#ffd7d7"/>
  <rect x="16" y="9" width="1" height="1" fill="#ffd2d2"/>
  <rect x="17" y="9" width="1" height="1" fill="#ffd4d4"/>
  <rect x="18" y="9" width="1" height="1" fill="#ffd1d1"/>
  <rect x="19" y="9" width="1" height="1" fill="#ffe3e3"/>
  <rect x="20" y="9" width="1" height="1" fill="#ff7878"/>
  <rect x="21" y="9" width="1" height="1" fill="#ff0000"/>
  <rect x="22" y="9" width="1" height="1" fill="#ff0000"/>
  <rect x="23" y="9" width="1" height="1" fill="#ffffff"/>
  <rect x="0" y="10" width="1" height="1" fill="#ffffff"/>
  <rect x="1" y="10" width="1" height="1" fill="#ff0101"/>
  <rect x="2" y="10" width="1" height="1" fill="#ff0505"/>
  <rect x="3" y="10" width="1" height="1" fill="#ff8282"/>
  <rect x="4" y="10" width="1" height="1" fill="#ffe5e5"/>
  <rect x="5" y="10" width="1" height="1" fill="#ffd3d3"/>
  <rect x="6" y="10" width="1" height="1" fill="#ffd5d5"/>
  <rect x="7" y="10" width="1" height="1" fill="#ffdcdc"/>
  <rect x="8" y="10" width="1" height="1" fill="#ffcaca"/>
  <rect x="9" y="10" width="1" height="1" fill="#ffcece"/>
  <rect x="10" y="10" width="1" height="1" fill="#ffdcdc"/>
  <rect x="11" y="10" width="1" height="1" fill="#ffd5d5"/>
  <rect x="12" y="10" width="1" height="1" fill="#ffd5d5"/>
  <rect x="13" y="10" width="1" height="1" fill="#ffdcdc"/>
  <rect x="14" y="10" width="1" height="1" fill="#ffc6c6"/>
  <rect x="15" y="10" width="1" height="1" fill="#ffc9c9"/>
  <rect x="16" y="10" width="1" height="1" fill="#ffdcdc"/>
  <rect x="17" y="10" width="1" height="1" fill="#ffd5d5"/>
  <rect x="18" y="10" width="1" height="1" fill="#ffd3d3"/>
  <rect x="19" y="10" width="1" height="1" fill="#ffe5e5"/>
  <rect x="20" y="10" width="1" height="1" fill="#ff7a7a"/>
  <rect x="21" y="10" width="1" height="1" fill="#ff0505"/>
  <rect x="22" y="10" width="1" height="1" fill="#ff0101"/>
  <rect x="23" y="10" width="1" height="1" fill="#ffffff"/>
  <rect x="0" y="11" width="1" height="1" fill="#ffffff"/>
  <rect x="1" y="11" width="1" height="1" fill="#ffa3a3"/>
  <rect x="2" y="11" width="1" height="1" fill="#ffc2c2"/>
  <rect x="3" y="11" width="1" height="1" fill="#ffcccc"/>
  <rect x="4" y="11" width="1" height="1" fill="#ffd8d8"/>
  <rect x="5" y="11" width="1" height="1" fill="#ffd4d4"/>
  <rect x="6" y="11" width="1" height="1" fill="#ffdede"/>
  <rect x="7" y="11" width="1" height="1" fill="#ffabab"/>
  <rect x="8" y="11" width="1" height="1" fill="#ff1313"/>
  <rect x="9" y="11" width="1" height="1" fill="#ff1919"/>
  <rect x="10" y="11" width="1" height="1" fill="#ffb8b8"/>
  <rect x="11" y="11" width="1" height="1" fill="#ffdbdb"/>
  <rect x="12" y="11" width="1" height="1" fill="#ffdede"/>
  <rect x="13" y="11" width="1" height="1" fill="#ffa8a8"/>
  <rect x="14" y="11" width="1" height="1" fill="#ff0f0f"/>
  <rect x="15" y="11" width="1" height="1" fill="#ff1414"/>
  <rect x="16" y="11" width="1" height="1" fill="#ffb5b5"/>
  <rect x="17" y="11" width="1" height="1" fill="#ffdede"/>
  <rect x="18" y="11" width="1" height="1" fill="#ffd4d4"/>
  <rect x="19" y="11" width="1" height="1" fill="#ffd8d8"/>
  <rect x="20" y="11" width="1" height="1" fill="#ffcbcb"/>
  <rect x="21" y="11" width="1" height="1" fill="#ffc2c2"/>
  <rect x="22" y="11" width="1" height="1" fill="#ffa3a3"/>
  <rect x="23" y="11" width="1" height="1" fill="#ffffff"/>
  <rect x="0" y="12" width="1" height="1" fill="#ffffff"/>
  <rect x="1" y="12" width="1" height="1" fill="#ffc6c6"/>
  <rect x="2" y="12" width="1" height="1" fill="#ffe1e1"/>
  <rect x="3" y="12" width="1" height="1" fill="#ffd8d8"/>
  <rect x="4" y="12" width="1" height="1" fill="#ffd6d6"/>
  <rect x="5" y="12" width="1" height="1" fill="#ffd3d3"/>
  <rect x="6" y="12" width="1" height="1" fill="#ffe6e6"/>
  <rect x="7" y="12" width="1" height="1" fill="#ff7878"/>
  <rect x="8" y="12" width="1" height="1" fill="#ff0000"/>
  <rect x="9" y="12" width="1" height="1" fill="#ff0000"/>
  <rect x="10" y="12" width="1" height="1" fill="#ff8c8c"/>
  <rect x="11" y="12" width="1" height="1" fill="#ffe0e0"/>
  <rect x="12" y="12" width="1" height="1" fill="#ffe3e3"/>
  <rect x="13" y="12" width="1" height="1" fill="#ff7a7a"/>
  <rect x="14" y="12" width="1" height="1" fill="#ff0000"/>
  <rect x="15" y="12" width="1" height="1" fill="#ff0000"/>
  <rect x="16" y="12" width="1" height="1" fill="#ff8a8a"/>
  <rect x="17" y="12" width="1" height="1" fill="#ffe5e5"/>
  <rect x="18" y="12" width="1" height="1" fill="#ffd3d3"/>
  <rect x="19" y="12" width="1" height="1" fill="#ffd6d6"/>
  <rect x="20" y="12" width="1" height="1" fill="#ffd8d8"/>
  <rect x="21" y="12" width="1" height="1" fill="#ffe1e1"/>
  <rect x="22" y="12" width="1" height="1" fill="#ffc6c6"/>
  <rect x="23" y="12" width="1" height="1" fill="#ffffff"/>
  <rect x="0" y="13" width="1" height="1" fill="#ffffff"/>
  <rect x="1" y="13" width="1" height="1" fill="#ffbfbf"/>
  <rect x="2" y="13" width="1" height="1" fill="#ffdada"/>
  <rect x="3" y="13" width="1" height="1" fill="#ffd6d6"/>
  <rect x="4" y="13" width="1" height="1" fill="#ffd6d6"/>
  <rect x="5" y="13" width="1" height="1" fill="#ffd3d3"/>
  <rect x="6" y="13" width="1" height="1" fill="#ffe5e5"/>
  <rect x="7" y="13" width="1" height="1" fill="#ff8383"/>
  <rect x="8" y="13" width="1" height="1" fill="#ff0000"/>
  <rect x="9" y="13" width="1" height="1" fill="#ff0000"/>
  <rect x="10" y="13" width="1" height="1" fill="#ff9797"/>
  <rect x="11" y="13" width="1" height="1" fill="#ffe0e0"/>
  <rect x="12" y="13" width="1" height="1" fill="#ffe2e2"/>
  <rect x="13" y="13" width="1" height="1" fill="#ff8585"/>
  <rect x="14" y="13" width="1" height="1" fill="#ff0000"/>
  <rect x="15" y="13" width="1" height="1" fill="#ff0000"/>
  <rect x="16" y="13" width="1" height="1" fill="#ff9797"/>
  <rect x="17" y="13" width="1" height="1" fill="#ffe3e3"/>
  <rect x="18" y="13" width="1" height="1" fill="#ffd3d3"/>
  <rect x="19" y="13" width="1" height="1" fill="#ffd6d6"/>
  <rect x="20" y="13" width="1" height="1" fill="#ffd5d5"/>
  <rect x="21" y="13" width="1" height="1" fill="#ffdada"/>
  <rect x="22" y="13" width="1" height="1" fill="#ffbfbf"/>
  <rect x="23" y="13" width="1" height="1" fill="#ffffff"/>
  <rect x="0" y="14" width="1" height="1" fill="#ffffff"/>
  <rect x="1" y="14" width="1" height="1" fill="#ffc0c0"/>
  <rect x="2" y="14" width="1" height="1" fill="#ffdbdb"/>
  <rect x="3" y="14" width="1" height="1" fill="#ffd6d6"/>
  <rect x="4" y="14" width="1" height="1" fill="#ffd6d6"/>
  <rect x="5" y="14" width="1" height="1" fill="#ffd5d5"/>
  <rect x="6" y="14" width="1" height="1" fill="#ffdada"/>
  <rect x="7" y="14" width="1" height="1" fill="#ffc9c9"/>
  <rect x="8" y="14" width="1" height="1" fill="#ff5e5e"/>
  <rect x="9" y="14" width="1" height="1" fill="#ff6464"/>
  <rect x="10" y="14" width="1" height="1" fill="#ffd0d0"/>
  <rect x="11" y="14" width="1" height="1" fill="#ffd8d8"/>
  <rect x="12" y="14" width="1" height="1" fill="#ffd8d8"/>
  <rect x="13" y="14" width="1" height="1" fill="#ffcccc"/>
  <rect x="14" y="14" width="1" height="1" fill="#ff6565"/>
  <rect x="15" y="14" width="1" height="1" fill="#ff6c6c"/>
  <rect x="16" y="14" width="1" height="1" fill="#ffd1d1"/>
  <rect x="17" y="14" width="1" height="1" fill="#ffd8d8"/>
  <rect x="18" y="14" width="1" height="1" fill="#ffd6d6"/>
  <rect x="19" y="14" width="1" height="1" fill="#ffd6d6"/>
  <rect x="20" y="14" width="1" height="1" fill="#ffd6d6"/>
  <rect x="21" y="14" width="1" height="1" fill="#ffdbdb"/>
  <rect x="22" y="14" width="1" height="1" fill="#ffc0c0"/>
  <rect x="23" y="14" width="1" height="1" fill="#ffffff"/>
  <rect x="0" y="15" width="1" height="1" fill="#ffffff"/>
  <rect x="1" y="15" width="1" height="1" fill="#ffc0c0"/>
  <rect x="2" y="15" width="1" height="1" fill="#ffdbdb"/>
  <rect x="3" y="15" width="1" height="1" fill="#ffd6d6"/>
  <rect x="4" y="15" width="1" height="1" fill="#ffd6d6"/>
  <rect x="5" y="15" width="1" height="1" fill="#ffd6d6"/>
  <rect x="6" y="15" width="1" height="1" fill="#ffd5d5"/>
  <rect x="7" y="15" width="1" height="1" fill="#ffdada"/>
  <rect x="8" y="15" width="1" height="1" fill="#ffe4e4"/>
  <rect x="9" y="15" width="1" height="1" fill="#ffe3e3"/>
  <rect x="10" y="15" width="1" height="1" fill="#ffd6d6"/>
  <rect x="11" y="15" width="1" height="1" fill="#ffd4d4"/>
  <rect x="12" y="15" width="1" height="1" fill="#ffd4d4"/>
  <rect x="13" y="15" width="1" height="1" fill="#ffd8d8"/>
  <rect x="14" y="15" width="1" height="1" fill="#ffe4e4"/>
  <rect x="15" y="15" width="1" height="1" fill="#ffe4e4"/>
  <rect x="16" y="15" width="1" height="1" fill="#ffd8d8"/>
  <rect x="17" y="15" width="1" height="1" fill="#ffd6d6"/>
  <rect x="18" y="15" width="1" height="1" fill="#ffd6d6"/>
  <rect x="19" y="15" width="1" height="1" fill="#ffd6d6"/>
  <rect x="20" y="15" width="1" height="1" fill="#ffd6d6"/>
  <rect x="21" y="15" width="1" height="1" fill="#ffdbdb"/>
  <rect x="22" y="15" width="1" height="1" fill="#ffc0c0"/>
  <rect x="23" y="15" width="1" height="1" fill="#ffffff"/>
  <rect x="0" y="16" width="1" height="1" fill="#ffffff"/>
  <rect x="1" y="16" width="1" height="1" fill="#ffbebe"/>
  <rect x="2" y="16" width="1" height="1" fill="#ffd8d8"/>
  <rect x="3" y="16" width="1" height="1" fill="#ffd5d5"/>
  <rect x="4" y="16" width="1" height="1" fill="#ffd6d6"/>
  <rect x="5" y="16" width="1" height="1" fill="#ffd6d6"/>
  <rect x="6" y="16" width="1" height="1" fill="#ffd6d6"/>
  <rect x="7" y="16" width="1" height="1" fill="#ffd5d5"/>
  <rect x="8" y="16" width="1" height="1" fill="#ffd3d3"/>
  <rect x="9" y="16" width="1" height="1" fill="#ffdada"/>
  <rect x="10" y="16" width="1" height="1" fill="#ffdcdc"/>
  <rect x="11" y="16" width="1" height="1" fill="#ffdddd"/>
  <rect x="12" y="16" width="1" height="1" fill="#ffdcdc"/>
  <rect x="13" y="16" width="1" height="1" fill="#ffdcdc"/>
  <rect x="14" y="16" width="1" height="1" fill="#ffd8d8"/>
  <rect x="15" y="16" width="1" height="1" fill="#ffd3d3"/>
  <rect x="16" y="16" width="1" height="1" fill="#ffd6d6"/>
  <rect x="17" y="16" width="1" height="1" fill="#ffd6d6"/>
  <rect x="18" y="16" width="1" height="1" fill="#ffd6d6"/>
  <rect x="19" y="16" width="1" height="1" fill="#ffd6d6"/>
  <rect x="20" y="16" width="1" height="1" fill="#ffd5d5"/>
  <rect x="21" y="16" width="1" height="1" fill="#ffd8d8"/>
  <rect x="22" y="16" width="1" height="1" fill="#ffbebe"/>
  <rect x="23" y="16" width="1" height="1" fill="#ffffff"/>
  <rect x="0" y="17" width="1" height="1" fill="#ffffff"/>
  <rect x="1" y="17" width="1" height="1" fill="#ffcccc"/>
  <rect x="2" y="17" width="1" height="1" fill="#ffe8e8"/>
  <rect x="3" y="17" width="1" height="1" fill="#ffdcdc"/>
  <rect x="4" y="17" width="1" height="1" fill="#ffd5d5"/>
  <rect x="5" y="17" width="1" height="1" fill="#ffd6d6"/>
  <rect x="6" y="17" width="1" height="1" fill="#ffd6d6"/>
  <rect x="7" y="17" width="1" height="1" fill="#ffd6d6"/>
  <rect x="8" y="17" width="1" height="1" fill="#ffd7d7"/>
  <rect x="9" y="17" width="1" height="1" fill="#ffbfbf"/>
  <rect x="10" y="17" width="1" height="1" fill="#ffbdbd"/>
  <rect x="11" y="17" width="1" height="1" fill="#ffbebe"/>
  <rect x="12" y="17" width="1" height="1" fill="#ffbfbf"/>
  <rect x="13" y="17" width="1" height="1" fill="#ffbfbf"/>
  <rect x="14" y="17" width="1" height="1" fill="#ffc2c2"/>
  <rect x="15" y="17" width="1" height="1" fill="#ffd8d8"/>
  <rect x="16" y="17" width="1" height="1" fill="#ffd6d6"/>
  <rect x="17" y="17" width="1" height="1" fill="#ffd6d6"/>
  <rect x="18" y="17" width="1" height="1" fill="#ffd6d6"/>
  <rect x="19" y="17" width="1" height="1" fill="#ffd5d5"/>
  <rect x="20" y="17" width="1" height="1" fill="#ffdcdc"/>
  <rect x="21" y="17" width="1" height="1" fill="#ffe8e8"/>
  <rect x="22" y="17" width="1" height="1" fill="#ffcccc"/>
  <rect x="23" y="17" width="1" height="1" fill="#ffffff"/>
  <rect x="0" y="18" width="1" height="1" fill="#ffffff"/>
  <rect x="1" y="18" width="1" height="1" fill="#ff7c7c"/>
  <rect x="2" y="18" width="1" height="1" fill="#ff9696"/>
  <rect x="3" y="18" width="1" height="1" fill="#ffbaba"/>
  <rect x="4" y="18" width="1" height="1" fill="#ffdcdc"/>
  <rect x="5" y="18" width="1" height="1" fill="#ffd5d5"/>
  <rect x="6" y="18" width="1" height="1" fill="#ffd3d3"/>
  <rect x="7" y="18" width="1" height="1" fill="#ffe5e5"/>
  <rect x="8" y="18" width="1" height="1" fill="#ff7c7c"/>
  <rect x="9" y="18" width="1" height="1" fill="#ff0000"/>
  <rect x="10" y="18" width="1" height="1" fill="#ff0000"/>
  <rect x="11" y="18" width="1" height="1" fill="#ff0000"/>
  <rect x="12" y="18" width="1" height="1" fill="#ff0000"/>
  <rect x="13" y="18" width="1" height="1" fill="#ff0000"/>
  <rect x="14" y="18" width="1" height="1" fill="#ff0000"/>
  <rect x="15" y="18" width="1" height="1" fill="#ff8181"/>
  <rect x="16" y="18" width="1" height="1" fill="#ffe4e4"/>
  <rect x="17" y="18" width="1" height="1" fill="#ffd3d3"/>
  <rect x="18" y="18" width="1" height="1" fill="#ffd5d5"/>
  <rect x="19" y="18" width="1" height="1" fill="#ffdcdc"/>
  <rect x="20" y="18" width="1" height="1" fill="#ffb8b8"/>
  <rect x="21" y="18" width="1" height="1" fill="#ff9696"/>
  <rect x="22" y="18" width="1" height="1" fill="#ff7c7c"/>
  <rect x="23" y="18" width="1" height="1" fill="#ffffff"/>
  <rect x="0" y="19" width="1" height="1" fill="#ffffff"/>
  <rect x="1" y="19" width="1" height="1" fill="#ff0000"/>
  <rect x="2" y="19" width="1" height="1" fill="#ff0000"/>
  <rect x="3" y="19" width="1" height="1" fill="#ff7a7a"/>
  <rect x="4" y="19" width="1" height="1" fill="#ffe6e6"/>
  <rect x="5" y="19" width="1" height="1" fill="#ffd3d3"/>
  <rect x="6" y="19" width="1" height="1" fill="#ffd4d4"/>
  <rect x="7" y="19" width="1" height="1" fill="#ffdede"/>
  <rect x="8" y="19" width="1" height="1" fill="#ffa8a8"/>
  <rect x="9" y="19" width="1" height="1" fill="#ff4d4d"/>
  <rect x="10" y="19" width="1" height="1" fill="#ff4b4b"/>
  <rect x="11" y="19" width="1" height="1" fill="#ff4848"/>
  <rect x="12" y="19" width="1" height="1" fill="#ff4747"/>
  <rect x="13" y="19" width="1" height="1" fill="#ff4747"/>
  <rect x="14" y="19" width="1" height="1" fill="#ff4747"/>
  <rect x="15" y="19" width="1" height="1" fill="#ffa8a8"/>
  <rect x="16" y="19" width="1" height="1" fill="#ffdede"/>
  <rect x="17" y="19" width="1" height="1" fill="#ffd4d4"/>
  <rect x="18" y="19" width="1" height="1" fill="#ffd3d3"/>
  <rect x="19" y="19" width="1" height="1" fill="#ffe6e6"/>
  <rect x="20" y="19" width="1" height="1" fill="#ff7171"/>
  <rect x="21" y="19" width="1" height="1" fill="#ff0000"/>
  <rect x="22" y="19" width="1" height="1" fill="#ff0000"/>
  <rect x="23" y="19" width="1" height="1" fill="#ffffff"/>
  <rect x="0" y="20" width="1" height="1" fill="#ffffff"/>
  <rect x="1" y="20" width="1" height="1" fill="#ff0101"/>
  <rect x="2" y="20" width="1" height="1" fill="#ff0101"/>
  <rect x="3" y="20" width="1" height="1" fill="#ff8181"/>
  <rect x="4" y="20" width="1" height="1" fill="#ffe5e5"/>
  <rect x="5" y="20" width="1" height="1" fill="#ffd3d3"/>
  <rect x="6" y="20" width="1" height="1" fill="#ffd6d6"/>
  <rect x="7" y="20" width="1" height="1" fill="#ffd5d5"/>
  <rect x="8" y="20" width="1" height="1" fill="#ffdede"/>
  <rect x="9" y="20" width="1" height="1" fill="#ffe4e4"/>
  <rect x="10" y="20" width="1" height="1" fill="#ffe4e4"/>
  <rect x="11" y="20" width="1" height="1" fill="#ffe4e4"/>
  <rect x="12" y="20" width="1" height="1" fill="#ffe3e3"/>
  <rect x="13" y="20" width="1" height="1" fill="#ffe3e3"/>
  <rect x="14" y="20" width="1" height="1" fill="#ffe4e4"/>
  <rect x="15" y="20" width="1" height="1" fill="#ffdede"/>
  <rect x="16" y="20" width="1" height="1" fill="#ffd5d5"/>
  <rect x="17" y="20" width="1" height="1" fill="#ffd6d6"/>
  <rect x="18" y="20" width="1" height="1" fill="#ffd3d3"/>
  <rect x="19" y="20" width="1" height="1" fill="#ffe5e5"/>
  <rect x="20" y="20" width="1" height="1" fill="#ff7979"/>
  <rect x="21" y="20" width="1" height="1" fill="#ff0101"/>
  <rect x="22" y="20" width="1" height="1" fill="#ff0101"/>
  <rect x="23" y="20" width="1" height="1" fill="#ffffff"/>
  <rect x="0" y="21" width="1" height="1" fill="#ffffff"/>
  <rect x="1" y="21" width="1" height="1" fill="#ff0000"/>
  <rect x="2" y="21" width="1" height="1" fill="#ff0000"/>
  <rect x="3" y="21" width="1" height="1" fill="#ff8080"/>
  <rect x="4" y="21" width="1" height="1" fill="#ffe5e5"/>
  <rect x="5" y="21" width="1" height="1" fill="#ffd3d3"/>
  <rect x="6" y="21" width="1" height="1" fill="#ffd6d6"/>
  <rect x="7" y="21" width="1" height="1" fill="#ffd6d6"/>
  <rect x="8" y="21" width="1" height="1" fill="#ffd5d5"/>
  <rect x="9" y="21" width="1" height="1" fill="#ffd3d3"/>
  <rect x="10" y="21" width="1" height="1" fill="#ffd4d4"/>
  <rect x="11" y="21" width="1" height="1" fill="#ffd3d3"/>
  <rect x="12" y="21" width="1" height="1" fill="#ffd4d4"/>
  <rect x="13" y="21" width="1" height="1" fill="#ffd4d4"/>
  <rect x="14" y="21" width="1" height="1" fill="#ffd4d4"/>
  <rect x="15" y="21" width="1" height="1" fill="#ffd5d5"/>
  <rect x="16" y="21" width="1" height="1" fill="#ffd6d6"/>
  <rect x="17" y="21" width="1" height="1" fill="#ffd6d6"/>
  <rect x="18" y="21" width="1" height="1" fill="#ffd3d3"/>
  <rect x="19" y="21" width="1" height="1" fill="#ffe5e5"/>
  <rect x="20" y="21" width="1" height="1" fill="#ff7878"/>
  <rect x="21" y="21" width="1" height="1" fill="#ff0000"/>
  <rect x="22" y="21" width="1" height="1" fill="#ff0000"/>
  <rect x="23" y="21" width="1" height="1" fill="#ffffff"/>
  <rect x="0" y="22" width="1" height="1" fill="#ffffff"/>
  <rect x="1" y="22" width="1" height="1" fill="#ff0000"/>
  <rect x="2" y="22" width="1" height="1" fill="#ff0000"/>
  <rect x="3" y="22" width="1" height="1" fill="#ff8080"/>
  <rect x="4" y="22" width="1" height="1" fill="#ffe5e5"/>
  <rect x="5" y="22" width="1" height="1" fill="#ffd3d3"/>
  <rect x="6" y="22" width="1" height="1" fill="#ffd6d6"/>
  <rect x="7" y="22" width="1" height="1" fill="#ffd6d6"/>
  <rect x="8" y="22" width="1" height="1" fill="#ffd6d6"/>
  <rect x="9" y="22" width="1" height="1" fill="#ffd6d6"/>
  <rect x="10" y="22" width="1" height="1" fill="#ffd6d6"/>
  <rect x="11" y="22" width="1" height="1" fill="#ffd6d6"/>
  <rect x="12" y="22" width="1" height="1" fill="#ffd6d6"/>
  <rect x="13" y="22" width="1" height="1" fill="#ffd6d6"/>
  <rect x="14" y="22" width="1" height="1" fill="#ffd6d6"/>
  <rect x="15" y="22" width="1" height="1" fill="#ffd6d6"/>
  <rect x="16" y="22" width="1" height="1" fill="#ffd6d6"/>
  <rect x="17" y="22" width="1" height="1" fill="#ffd6d6"/>
  <rect x="18" y="22" width="1" height="1" fill="#ffd3d3"/>
  <rect x="19" y="22" width="1" height="1" fill="#ffe5e5"/>
  <rect x="20" y="22" width="1" height="1" fill="#ff7878"/>
  <rect x="21" y="22" width="1" height="1" fill="#ff0000"/>
  <rect x="22" y="22" width="1" height="1" fill="#ff0000"/>
  <rect x="23" y="22" width="1" height="1" fill="#ffffff"/>
  <rect x="0" y="23" width="1" height="1" fill="#ffffff"/>
  <rect x="1" y="23" width="1" height="1" fill="#ff0a0a"/>
  <rect x="2" y="23" width="1" height="1" fill="#ff0e0e"/>
  <rect x="3" y="23" width="1" height="1" fill="#ff7878"/>
  <rect x="4" y="23" width="1" height="1" fill="#ffe4e4"/>
  <rect x="5" y="23" width="1" height="1" fill="#ffd3d3"/>
  <rect x="6" y="23" width="1" height="1" fill="#ffd6d6"/>
  <rect x="7" y="23" width="1" height="1" fill="#ffd6d6"/>
  <rect x="8" y="23" width="1" height="1" fill="#ffd6d6"/>
  <rect x="9" y="23" width="1" height="1" fill="#ffd6d6"/>
  <rect x="10" y="23" width="1" height="1" fill="#ffd6d6"/>
  <rect x="11" y="23" width="1" height="1" fill="#ffd6d6"/>
  <rect x="12" y="23" width="1" height="1" fill="#ffd6d6"/>
  <rect x="13" y="23" width="1" height="1" fill="#ffd6d6"/>
  <rect x="14" y="23" width="1" height="1" fill="#ffd6d6"/>
  <rect x="15" y="23" width="1" height="1" fill="#ffd6d6"/>
  <rect x="16" y="23" width="1" height="1" fill="#ffd6d6"/>
  <rect x="17" y="23" width="1" height="1" fill="#ffd6d6"/>
  <rect x="18" y="23" width="1" height="1" fill="#ffd3d3"/>
  <rect x="19" y="23" width="1" height="1" fill="#ffe3e3"/>
  <rect x="20" y="23" width="1" height="1" fill="#ff7171"/>
  <rect x="21" y="23" width="1" height="1" fill="#ff0e0e"/>
  <rect x="22" y="23" width="1" height="1" fill="#ff0a0a"/>
  <rect x="23" y="23" width="1" height="1" fill="#ffffff"/>
</svg>